<?xml version="1.0" standalone="no"?>
<!DOCTYPE svg PUBLIC "-//W3C//DTD SVG 1.1//EN" "http://www.w3.org/Graphics/SVG/1.1/DTD/svg11.dtd">
<svg xmlns="http://www.w3.org/2000/svg">
<metadata>Copyright (C) 2014 by original authors @ fontello.com</metadata>
<defs>
<font id="fontello" horiz-adv-x="1000" >
<font-face font-family="fontello" font-weight="400" font-stretch="normal" units-per-em="1000" ascent="850" descent="-150" />
<missing-glyph horiz-adv-x="1000" />
<glyph glyph-name="end-barline" unicode="&#xe800;" d="m-8 650h225v175h-225v25h250v-825h-250v25h225v175h-225v25h225v175h-225v25h225v175h-225v25z" horiz-adv-x="234.4" />
<glyph glyph-name="double-barline" unicode="&#xe801;" d="m242 850v-825h-250v25h100v175h-100v25h100v175h-100v25h100v175h-100v25h100v175h-100v25h250z m-25-800v175h-100v-175h100z m0 375h-100v-175h100v175z m-100 400v-175h100v175h-100z m100-200h-100v-175h100v175z" horiz-adv-x="234.4" />
<glyph glyph-name="tie-up" unicode="&#xe802;" d="m17 25h-25v25h25v-25z m0 400h-25v25h25v-25z m0 200h-25v25h25v-25z m0 200h-25v25h25v-25z m0-600h-25v25h25v-25z m-25 668c6 25 19 45 39 60s48 22 86 22 67-7 87-22 32-35 38-60h-25c0 8-4 14-12 19s-17 7-28 9-22 3-34 4-20 0-26 0-14 0-26 0-22-2-33-4-21-5-29-9-12-11-12-19h-25z" horiz-adv-x="9.8" />
<glyph glyph-name="slur-up" unicode="&#xe803;" d="m17 25h-25v25h25v-25z m0 400h-25v25h25v-25z m0 200h-25v25h25v-25z m0 200h-25v25h25v-25z m0-600h-25v25h25v-25z m245 850c20 0 43-3 70-9s52-17 76-31 44-33 60-56 24-52 24-86h-25c-10 18-20 34-30 50s-24 30-40 42-36 22-60 29-55 11-93 11c-40 0-72-3-95-9s-43-16-58-27-28-26-38-42-22-34-35-54h-26c0 32 8 60 25 83s36 42 60 56 50 26 76 33 49 10 69 10h40z" horiz-adv-x="9.8" />
<glyph glyph-name="ligature-up" unicode="&#xe804;" d="m387 1134c46 0 89-7 129-21s82-36 125-67c0 0 2-3 6-9s11-15 17-25l23-32c8-12 16-23 23-35s14-21 18-30 7-14 7-18c0-3-1-4-3-4-1 0-1 0-2 1s-3 2-4 2c-10 6-20 15-30 26s-20 22-29 34l-24 31c-7 9-13 14-17 16-42 28-84 49-126 61s-86 19-130 19c-46 0-91-5-137-17s-90-33-134-65c-4-3-9-8-16-17l-23-29c-8-10-18-21-28-32s-21-20-32-27c-2-2-4-3-5-3-1 0-1 1-1 2 0 3 2 9 7 17l16 29c6 12 13 24 21 36l22 34 18 25c5 7 8 10 10 10 44 31 87 53 128 67 42 14 85 21 131 21h40z m-370-909h-25v25h25v-25z m0 200h-25v25h25v-25z m0 200h-25v25h25v-25z m0 200h-25v25h25v-25z m0-800h-25v25h25v-25z" horiz-adv-x="9.8" />
<glyph glyph-name="G-clef" unicode="&#xe805;" d="m492 25l-138 0 1-7c6-17 10-35 13-56s6-42 8-63v-11c0-20-4-38-11-56s-18-32-31-45-29-23-46-30-35-11-55-11c-18 0-36 4-55 11-23 9-43 22-58 40s-23 39-23 65c0 16 5 32 14 49s22 29 37 36c12 6 23 9 33 9s19-3 28-7 15-12 21-20 11-17 14-27 4-20 4-30c0-17-5-33-16-47s-28-21-53-21h-7c7-13 15-21 25-26s21-7 33-7c20 0 40 6 61 16s35 22 45 35c6 10 11 22 13 37s4 31 4 46c0 12 0 22-1 32s-3 19-6 26c0 12-2 22-6 32s-8 20-11 30h-337v25h231c-11 1-20 4-29 8-42 11-79 32-110 62s-54 65-70 105h-22v25h13c-8 27-12 55-12 84 0 31 5 61 15 91h-16v25h27c17 33 35 64 56 93s43 56 68 82h-151v25h176c6 5 11 10 16 14l15 14c-7 26-12 50-17 74s-8 48-10 73h-180v25h180c0 21 2 44 5 69s8 50 16 73 19 45 34 64 32 33 55 41c2 1 3 1 5 1 5 0 10-2 15-7s9-11 13-17 8-13 11-19l6-13c11-22 20-45 26-70s9-50 9-75c0-4 0-8 1-12s0-8 0-12c0-4 0-8 0-12s-1-7-1-11h125v-25h-126c-2-25-6-50-12-74s-16-47-28-71l-18-30h184v-25h-201c-1 0-1-1-2-3s-2-3-4-4l-9-9-14-14c-5-4-9-9-13-13s-6-7-6-8c6-27 10-49 12-66 4-10 6-20 8-29s3-19 5-29h224v-25h-124c33-18 58-42 76-74s26-65 26-101h22v-25h-23c-2-13-5-26-9-39-8-23-20-43-34-60s-31-31-51-43c-4-2-9-5-17-8s-11-7-11-13v-3l1-9h144v-25z m-306 200c2-14 7-27 16-39s21-22 37-31c7 0 11-2 11-8 0-3-2-5-7-5-21 4-39 13-55 26-20 16-34 35-42 57h-96c6-22 15-42 28-61s28-36 46-49 38-25 60-32 44-12 66-12c1 0 5 1 12 2s15 2 23 3 16 3 22 5 10 3 10 4c-2 5-4 11-4 18-3 16-6 31-8 45s-6 29-11 44l-6 33h-102z m-47 25c0 1-1 6-1 14 0 4-1 9-1 15 0 17 3 33 8 49s13 30 21 43c6 8 13 15 19 22s14 13 22 19c1 1 3 2 8 5s10 5 15 8h-132c-16-24-29-49-38-75s-15-54-15-82v-18h94z m186 600c2 4 3 7 3 9s2 6 3 8c3 8 5 17 7 27s3 19 3 28c0 14-3 27-9 38-6 14-16 20-28 20-11 0-22-4-33-12s-19-17-25-24c-16-26-28-58-36-94h115z m-13-625c5-22 10-44 14-66s9-44 14-66c26 10 44 25 56 45s17 43 17 67v10c0 4 0 7-1 10h-100z m-93 473c21 11 39 29 56 53s30 49 40 74h-109c-2-14-3-28-3-42 0-32 6-61 16-85z m68-347l10-51 10-50h100c-7 28-21 52-41 72s-47 29-79 29z m-45 99c-4 18-8 35-11 52s-6 34-10 52c-18-15-36-31-54-49s-34-35-50-55h125z m23-102c-23-7-42-20-56-38s-22-38-24-60h98c-3 16-6 33-9 49s-6 33-9 49z m56-297c-3 4-7 6-12 6-4 0-8-1-12-2s-7-2-10-4c0 0-1-1-2-1h36v1z" horiz-adv-x="484.4" />
<glyph glyph-name="begin-barline" unicode="&#xe806;" d="m242 850v-25h-225v-175h225v-25h-225v-175h225v-25h-225v-175h225v-25h-225v-175h225v-25h-250v825h250z" horiz-adv-x="234.4" />
<glyph glyph-name="begin-double-barline" unicode="&#xe807;" d="m-8 850h500v-25h-275v-175h275v-25h-275v-175h275v-25h-275v-175h275v-25h-275v-175h275v-25h-500v825z m200-200v175h-100v-175h100z m-100-25v-175h100v175h-100z m0-575h100v175h-100v-175z m0 375v-175h100v175h-100z m300 113c1-13-4-25-15-35s-23-15-35-15c-11 0-22 5-33 14s-17 21-17 36c0 13 5 24 14 35s21 15 36 15c16 0 29-5 38-16s13-22 12-34z m0-200c1-13-4-25-15-35s-23-15-35-15c-11 0-22 5-33 14s-17 21-17 36c0 13 5 25 14 35s21 15 36 15c16 0 29-5 38-16s13-22 12-34z" horiz-adv-x="484.4" />
<glyph glyph-name="tie-down" unicode="&#xe808;" d="m17 25h-25v25h25v-25z m0 800h-25v25h25v-25z m0-200h-25v25h25v-25z m0-200h-25v25h25v-25z m0-200h-25v25h25v-25z m0-243c0-8 4-14 12-18s18-8 29-10 22-3 33-3 20-1 26-1 15 0 26 1 23 1 34 3 20 5 28 10 12 10 12 18h25c-6-25-18-45-38-60s-49-22-87-22-67 8-86 22-33 35-39 60h25z" horiz-adv-x="9.8" />
<glyph glyph-name="slur-down" unicode="&#xe809;" d="m17 25h-25v25h25v-25z m0 400h-25v25h25v-25z m0 200h-25v25h25v-25z m0 200h-25v25h25v-25z m0-600h-25v25h25v-25z m205-425c-20 0-43 4-69 11s-52 17-76 32-44 34-60 57-25 50-25 82h25c13-19 25-37 35-53s23-31 38-42 34-21 58-28 56-9 96-9c38 0 68 4 93 11s44 17 60 29 30 26 40 42 20 33 30 50h25c0-34-8-62-24-85s-36-42-60-56-49-25-76-31-50-10-70-10h-40z" horiz-adv-x="9.8" />
<glyph glyph-name="ligature-down" unicode="&#xe80a;" d="m344-259c-46 0-89 7-131 21s-84 36-128 67c-3 0-9 7-19 20s-20 30-31 47-21 33-30 49-13 25-13 29c0 1 2 2 5 5s4 3 5 3c11 0 22-4 31-13s17-19 24-31 15-24 21-36 12-21 18-28c44-32 89-54 134-65s91-17 137-17c44 0 87 7 130 19s84 33 126 61c5 6 11 15 19 28s17 24 27 37 20 22 30 32 22 13 32 13c2 0 4-1 7-5s4-6 4-7c0-5-5-15-16-31s-24-31-37-47l-36-44c-10-13-15-19-15-19-43-31-85-53-125-67s-83-21-129-21h-40z m-327 284h-25v25h25v-25z m0 400h-25v25h25v-25z m0 200h-25v25h25v-25z m0 200h-25v25h25v-25z m0-600h-25v25h25v-25z" horiz-adv-x="9.8" />
<glyph glyph-name="dotted-barline" unicode="&#xe80b;" d="m18 225h-26v25h26v-25z m0 600h-26v25h26v-25z m0-200h-26v25h26v-25z m0-200h-26v25h26v-25z m0-400h-26v25h26v-25z" horiz-adv-x="9.8" />
<glyph glyph-name="end-bold-double-barline" unicode="&#xe80c;" d="m242 25h-250v25h50v175h-50v25h50v175h-50v25h50v175h-50v25h50v175h-50v25h250v-825z m-175 600v-175h74v175h-74z m0 200v-175h74v175h-74z m0-400v-175h74v175h-74z m74-200h-74v-175h74v175z" horiz-adv-x="234.4" />
<glyph glyph-name="quaver-A-low" unicode="&#xe80d;" d="m242 225l-39 0c1-8 3-16 6-23l7-21c5-16 12-32 22-46l17-21 24-29 44-44c33-43 50-89 50-136 0-11-1-24-3-37s-6-28-12-43c-4-11-8-21-11-29s-7-16-13-25l-15-1 17 44 6 18c2 6 4 13 5 20l3 27 1 12v20l-4 16-8 24c-6 21-18 40-34 56-14 19-30 33-48 41-6 2-12 2-15 2v-25h-42v-175h74v-25h-74v-159c0-8-1-14-3-16h77v-25h-85c-2-3-3-6-4-9s-3-6-7-10c-4-7-11-15-19-22s-19-14-31-19c-10-5-21-9-32-11s-23-4-34-4c-20 0-37 5-49 15-14 10-21 26-21 47v13h-73v25h79c1 3 4 7 7 11s5 7 7 9c7 8 14 15 23 22s18 13 29 18c22 10 42 15 60 15 15 0 26-2 33-4s13-7 18-13v117h-256v25h256v175h-183v25h183v175h-183v25h250v-25z m0 400h-250v25h250v-25z m0-200h-250v25h250v-25z m0 400h-250v25h250v-25z m-3-775c-7 3-14 5-21 7s-13 2-18 2v-9h39z" horiz-adv-x="234.4" />
<glyph glyph-name="common-time" unicode="&#xe80e;" d="m492 225l-500 0v25h105c-6 4-12 8-18 13-27 20-47 47-60 80-5 13-9 26-13 41s-6 28-7 41h-7v25h6c1 29 10 57 26 83 15 28 37 52 66 72 7 4 13 8 20 11s13 7 20 9h-138v25h500v-25h-266c5-2 9-3 11-4s6-3 10-4c11-5 21-11 30-17s18-14 25-24c16-17 23-37 23-60 0-19-6-36-19-51-8-7-16-12-24-15h210v-25h-393c0-52 2-83 7-92 12-49 42-74 88-74 36 0 66 20 89 60 5 12 10 23 14 35s7 23 9 36h23c-2-23-7-44-15-63s-18-35-32-51c-10-10-21-19-34-26h244v-25z m-263 225c-17 8-27 25-33 50 0 17 6 31 16 41 10 13 23 21 38 24l8 1 8 3 3 6c-3 11-12 19-28 24-12 7-27 10-43 10s-30-4-44-14c-6-2-13-7-20-15-5-5-10-11-15-18-13-25-20-62-20-112h130z m263 375h-500v25h500v-25z m0-800h-500v25h500v-25z" horiz-adv-x="484.4" />
<glyph glyph-name="2-2" unicode="&#xe80f;" d="m492 25h-500v32l84 92c12 14 23 26 35 39s24 24 34 37h-153v25h173c8 11 14 21 18 31s7 20 7 29c0 24-8 43-24 58s-39 22-67 22c-11 0-21-1-28-3s-14-5-20-11-12-13-17-22-11-21-18-35h-24c5 21 11 36 18 47s14 20 24 30c17 15 33 25 49 29h-91v31l84 92c12 14 23 27 36 39s24 26 34 38h-154v25h174c16 21 24 40 24 58 0 25-8 44-24 59s-39 22-67 22c-11 0-21-1-28-3s-14-6-20-11-12-13-17-22-11-21-18-35h-24c5 21 11 36 18 46s14 21 24 31c16 14 33 24 53 30h-95v25h500v-25h-328c24-6 44-18 59-35s23-37 23-59c0-14-2-27-7-40s-13-27-23-41h276v-25h-296c-5-5-11-11-16-17s-11-12-18-18l-98-98h205v-42h223v-25h-324c23-7 42-19 57-36s21-35 21-57c0-28-10-55-31-82h277v-25h-298c-3-5-14-16-32-33l-98-98h205v-44h223v-25z" horiz-adv-x="484.4" />
<glyph glyph-name="2-4" unicode="&#xe810;" d="m492 225l-270 0v-46h66v-37h-66v-92h270v-25h-500v25h180v92h-180v37l37 46h-37v25h57l140 175h-197v25h26v5l83 92c12 14 24 27 36 39s25 26 35 39h-180v25h200c8 10 13 20 18 29s6 19 6 28c0 25-8 44-25 59s-39 22-67 22c-10 0-19-1-27-3s-14-6-20-11-11-13-17-22-11-21-18-35h-24c6 21 11 36 17 46s14 21 24 31c17 15 36 25 57 31h-124v25h500v-25h-307c25-6 46-17 62-35s24-37 24-60c0-26-9-53-28-80h249v-25h-269c-5-6-10-12-16-17l-19-19-99-98h205v-41h198v-25h-270v-175h270v-25z m-462-46h142v46h-104z m58 71h84v102z" horiz-adv-x="484.4" />
<glyph glyph-name="3-4" unicode="&#xe811;" d="m492 225l-270 0v-46h66v-37h-66v-92h270v-25h-500v25h180v92h-180v37l37 46h-37v25h57l141 175h-198v25h90c-23 4-35 13-35 26 0 7 2 11 6 13s11 2 20 2h5c5 0 9 0 14-1s12-4 20-9c8-3 15-6 21-8s12-3 17-3c7 0 14 2 22 5l29 10c9 4 16 8 22 13s11 11 15 18 7 17 9 29c1 3 1 7 1 12 0 15-4 28-12 40s-19 21-32 28h-212v25h124v6c12 2 22 4 30 6s15 3 21 5 12 5 17 8 10 6 15 10c9 7 18 18 26 30s13 25 13 36c0 19-7 32-21 40s-32 12-54 12c-20 0-37-5-51-15s-27-25-42-47h-21c8 18 14 31 19 40s13 16 23 24c11 9 24 16 38 20h-137v25h500v-25h-271c19-6 34-15 46-27s17-27 17-44c0-16-4-32-13-48s-24-31-47-44c8-3 14-6 18-7s7-3 10-5h240v-25h-213c6-6 10-13 13-21s5-16 5-28c0-43-17-75-51-97-11-8-23-14-37-19s-29-8-44-10h327v-25h-270v-175h270v-25z m-462-46h142v46h-104z m58 71h84v102z" horiz-adv-x="484.4" />
<glyph glyph-name="4-4" unicode="&#xe812;" d="m492 225h-270v-46h66v-37h-66v-92h270v-25h-500v25h180v92h-180v37l37 46h-37v25h57l141 175h-198v25h180v93h-180v37l36 45h-36v25h56l141 175h-197v25h500v-25h-270v-175h270v-25h-270v-45h66v-37h-66v-93h270v-25h-270v-175h270v-25z m-462-46h142v46h-104z m0 401h142v45h-105z m57 70h85v103z m1-400h84v102z" horiz-adv-x="484.4" />
<glyph glyph-name="3-2" unicode="&#xe813;" d="m492 25l-500 0v25h12v7l84 92c11 14 23 26 35 39l35 37h-166v25h185c8 11 14 21 19 31s7 19 7 28c0 25-8 44-25 59s-39 22-67 22c-11 0-20-1-28-3s-14-6-20-11-11-13-17-22-11-21-18-35h-24c6 21 11 36 18 46s14 21 24 31c17 15 33 25 49 29h-103v25h56c-20 4-30 12-30 25 0 7 2 11 7 13s10 2 18 2h5c5 0 10 0 14-1s12-4 20-9c8-4 15-7 22-8s12-2 17-2c7 0 14 1 21 3l30 10c9 4 16 8 23 13s12 11 16 19 7 17 8 29v7c0 16-4 31-13 44s-21 23-37 30h-177v25h96v4c12 2 22 4 30 6s15 3 21 5 11 5 16 7 10 6 15 11c8 8 17 18 26 31s13 24 13 35c0 19-7 32-21 40s-32 12-53 12c-21 0-39-5-52-15s-28-25-42-47h-22c8 18 14 31 20 40s13 16 23 23c12 10 26 18 41 23h-111v25h500v-25h-302c20-6 35-15 47-27s18-27 18-45c0-16-4-32-13-48s-25-31-46-44c6-3 11-5 15-6s8-3 10-5h271v-25h-242c6-7 11-14 14-21s5-17 5-29c0-42-17-75-53-97-19-15-43-24-73-28h349v-25h-312c24-7 43-19 57-36s21-35 21-57c0-28-10-55-31-82h265v-25h-285l-16-16-17-18-98-98h205v-43h211v-25z" horiz-adv-x="484.4" />
<glyph glyph-name="6-8" unicode="&#xe814;" d="m492 450v-25h-286c20-6 35-16 45-32s14-33 14-51c0-9 0-18-1-25s-4-16-8-23-11-14-20-21-20-15-35-23h291v-25h-256c18-13 33-28 46-43s18-32 18-50c0-25-6-44-20-56s-31-21-53-26h265v-25h-500v25h87c-25 7-45 16-62 27s-25 30-25 55c0 9 2 18 7 27s10 18 17 27 15 16 24 23 18 12 27 16h-75v25h102c-14 10-25 19-33 27s-15 15-19 22-6 13-8 20-2 14-2 23c0 19 6 36 16 51s27 26 50 32h-106v25h100c-19 6-35 14-47 24s-21 22-28 36-11 30-13 46-3 34-3 52v17h-9v25h12c5 21 12 41 21 61s21 37 36 52 31 29 50 40 40 18 64 22h-183v25h500v-25h-255v-35c-53 0-95-12-127-38s-52-59-61-102l17 14c6 4 12 8 19 11s15 6 25 8 23 3 39 3c18 0 31 0 42-2s19-4 26-7 12-7 17-11 10-10 15-16h243v-25h-226c5-7 9-16 12-25s5-20 5-30c0-33-7-60-20-80s-37-33-71-40h300z m-430 175c-3-1-6-2-8-4s-3-5-4-10c0-16 1-31 4-47s7-29 14-41 17-22 30-30 30-11 51-11c29 0 50 9 64 26s20 37 20 60c0 13-2 24-7 34s-9 18-15 23h-149z m77-400c-21-13-39-28-55-44s-24-34-24-53c0-10 3-18 8-24s13-12 22-16 19-6 30-8 23-2 34-2c12 0 24 1 34 3s20 6 29 10 16 9 21 16 7 13 7 21c0 16-8 32-23 49s-37 33-63 48h-20z m15 47l27 16c8 5 14 10 19 14s8 10 11 17 4 14 4 23c0 20-6 34-19 43s-27 12-43 12c-21 0-38-5-51-16s-19-23-19-39c0-8 1-15 2-20s5-10 9-15 11-10 20-16 19-11 32-19h8z" horiz-adv-x="484.4" />
<glyph glyph-name="alla-breve" unicode="&#xe815;" d="m492 225l-314 0v-118h-44v118h-142v25h124c-23 11-45 28-68 53-28 30-43 71-45 122h-11v25h11c3 40 16 75 38 105 13 17 28 32 45 44s32 20 48 24v2h-142v25h142v109h46v-109h312v-25h-285c6-1 11-3 17-5l18-6c22-6 41-20 56-40 14-17 20-38 20-63 0-24-11-42-33-55l-24-6h231v-25h-312v-156c10 2 19 3 26 4s14 3 21 6 12 5 16 9c8 7 16 14 23 22s13 17 17 27c13 23 19 42 19 57h19c-6-51-23-89-50-115-15-14-31-23-46-29h267v-25z m0 600h-500v25h500v-25z m0-800h-500v25h500v-25z m-249 425c-5 1-9 3-12 6s-7 6-10 12c-3 5-5 9-7 14s-2 10-4 17v3c0 8 1 14 4 21s5 13 8 18c3 6 6 11 11 15s11 8 17 9c10 0 15 3 15 8 0 3-3 8-11 14l-28 12c-2 1-6 2-12 3s-10 1-16 1c-7 0-13 0-18-2v-151h63z m-164-66c3-19 7-35 11-47s7-23 12-30 9-14 14-18 11-7 18-10v146h-55v-41z m55 205c0 0-3-3-9-9s-13-16-22-34-17-40-24-70v-26h55v139z" horiz-adv-x="484.4" />
<glyph glyph-name="semiquaver-rest" unicode="&#xe816;" d="m242 625l-9 0-60-175h69v-25h-78l-61-175h139v-25h-250v25h85l61 175h-9c-12-9-22-16-31-20s-22-6-39-8c-4 0-9 1-15 2s-12 3-18 6-11 5-16 9-9 7-10 11h-8v33c0 16 5 29 15 41s23 17 39 17c10 0 22-6 35-18 8-12 12-25 12-40l-4-8h47c3 1 5 3 8 5s4 4 7 6l56 164h-9c-12-9-22-16-31-20s-22-7-39-8c-4 0-9 1-15 2s-12 3-18 6-11 5-16 9-8 7-10 11h-77v25h69v8c0 15 5 29 15 41s23 17 39 17c10 0 22-6 35-18 8-12 12-25 12-40l-4-8h84v-25z m0-600h-250v25h250v-25z m0 800h-250v25h250v-25z" horiz-adv-x="234.4" />
<glyph glyph-name="quaver-rest" unicode="&#xe817;" d="m68 225l-76 0v25h83l49 175h-132v25h139l23 83c-12-11-25-20-36-26s-24-10-37-10c-10 0-20 2-31 7s-22 11-35 21c-8 7-13 15-17 24s-6 19-6 29c0 18 5 34 15 47h-15v25h250v-25h-145c10-12 15-27 15-46-1-5-3-10-6-15s-4-9-4-12c0-4 3-7 8-9 2 0 6-1 10-1 9 0 18 3 26 8s15 11 22 18 13 15 21 26h16c-6-25-13-48-20-71l-21-73h78v-25h-85l-25-90c-9-30-17-58-25-85h135v-25h-142c-1-5-2-9-3-13s-2-9-4-12h-32z m174 600h-250v25h250v-25z m0-800h-250v25h250v-25z" horiz-adv-x="234.4" />
<glyph glyph-name="quarter-rest" unicode="&#xe818;" d="m242 225l-167 0-2-8c0-2-1-5-1-8 0-2 1-7 3-15s5-18 9-27 8-18 13-27 12-14 19-17l-12-23c-7 4-16 10-25 18s-20 18-30 29-20 23-29 36-18 27-25 42h-3v25c0 22 7 39 22 51s33 19 54 19c10 0 19 0 28-2s19-5 31-11l-87 118h-48v25h29l-16 22c32 31 55 57 68 79s19 42 19 60c0 2 0 4-2 7s-2 5-2 7h-96v25h85c-4 12-10 25-18 38s-17 27-28 42h40l65-80h106v-25h-85l48-59c-11-12-23-26-34-43s-26-42-45-73h116v-25h-124c0-6 3-17 8-32s11-31 19-48 17-34 27-50 20-28 30-37l-9-8h49v-25z m0-200h-250v25h250v-25z m0 800h-250v25h250v-25z m-70-575c-5 4-12 8-20 14s-19 9-33 9c-7 0-13-2-19-7s-10-10-14-16h86z" horiz-adv-x="234.4" />
<glyph glyph-name="half-rest" unicode="&#xe819;" d="m492 425h-500v105h350v-80h150v-25z m0 400h-500v25h500v-25z m0-200h-500v25h500v-25z m0-400h-500v25h500v-25z m0-200h-500v25h500v-25z" horiz-adv-x="484.4" />
<glyph glyph-name="whole-rest" unicode="&#xe81a;" d="m492 625h-150v-80h-350v105h500v-25z m0-600h-500v25h500v-25z m0 400h-500v25h500v-25z m0-200h-500v25h500v-25z m0 600h-500v25h500v-25z" horiz-adv-x="484.4" />
<glyph glyph-name="fermata" unicode="&#xe81b;" d="m279 1006c0 18-3 35-9 51s-14 30-24 41-23 21-38 27-31 10-48 10c-16 0-31-3-45-10s-26-17-37-29-20-26-26-41-10-32-10-49h-50c0 24 4 46 13 68s20 41 35 57c15 16 32 29 53 39 21 10 43 15 67 15s47-5 67-15 39-23 54-39c15-16 27-35 35-57 9-22 13-44 13-68h-50z m-69 23c0-16-5-28-15-36s-21-12-35-12c-33 0-50 18-50 54 0 15 5 27 15 35s21 11 35 11c14 0 25-4 35-13s15-21 15-37v-2z m-192-204h-26v25h26v-25z m0-800h-26v25h26v-25z m0 200h-26v25h26v-25z m0 200h-26v25h26v-25z m0 200h-26v25h26v-25z" horiz-adv-x="9.8" />
<glyph glyph-name="fermata-up" unicode="&#xe81c;" d="m279 1202c0 18-3 35-9 51s-14 30-24 41-23 21-38 27c-15 7-31 10-48 10-16 0-31-3-45-10s-26-17-37-29c-11-12-20-26-26-41-7-16-10-32-10-49h-50c0 24 4 46 13 68s20 40 35 57c15 16 32 29 53 39s43 15 67 15 47-5 67-15 39-23 54-39 27-36 35-57c9-22 13-44 13-68h-50z m-69 23c0-16-5-28-15-36s-21-12-35-12c-33 0-50 18-50 54 0 16 5 27 15 35s21 11 35 11c14 0 25-4 35-13s15-21 15-37v-2z m-192-800h-26v25h26v-25z m0 200h-26v25h26v-25z m0 200h-26v25h26v-25z m0-600h-26v25h26v-25z m0-200h-26v25h26v-25z" horiz-adv-x="9.8" />
<glyph glyph-name="guitar-grid" unicode="&#xe81d;" d="m0 926h693v-1063h-693v1063z m25-664h112v165h-112v-165z m0 190h112v165h-112v-165z m403-190h111v165h-111v-165z m0 190h111v165h-111v-165z m-266-25v-165h108v165h-108z m-137 215h112v158h-112v-158z m137-190h108v165h-108v-165z m241-190v165h-108v-165h108z m25 380h111v158h-111v-158z m-133-25v-165h108v165h-108z m-133 25h108v158h-108v-158z m133 0h108v158h-108v-158z m269-380h104v165h-104v-165z m104 190v165h-104v-165h104z m-104 348v-158h104v158h-104z m-539-725h112v162h-112v-162z m403 0h111v162h-111v-162z m-266 0h108v162h-108v-162z m241 162h-108v-162h108v162z m161-162h104v162h-104v-162z m-539-187h112v162h-112v-162z m403 0h111v162h-111v-162z m-266 0h108v162h-108v-162z m241 162h-108v-162h108v162z m161-162h104v162h-104v-162z" horiz-adv-x="750" />
<glyph glyph-name="quaver-B-low" unicode="&#xe81e;" d="m242 25h-42v-175h76v-25h-76v-58c0-21-7-40-22-59-4-7-11-15-19-22s-19-14-31-20c-20-10-42-16-65-16-20 0-37 6-50 16-7 6-13 12-16 21s-5 17-5 27 2 20 5 30 8 19 15 27c7 8 14 16 23 23s18 14 29 19c8 5 15 8 22 9s15 2 22 3h-190v25h257v175h-183v25h183v175h-183v25h183v100h25c2-13 4-25 7-36s6-21 9-31c2-6 3-12 6-18s4-10 7-15h13v-18l13-16 24-29 44-51c33-43 50-88 50-136 0-11-1-24-3-37s-6-28-12-43c-4-11-8-21-11-28s-7-16-13-26l-15-1 17 44 6 18c2 6 4 13 5 20l3 27 1 12v20c-1 3-2 6-2 8s-1 5-1 6-1 4-3 8l-6 18c-6 21-18 39-34 56-14 19-30 33-48 41-9 6-19 10-29 13s-20 5-28 5v-111h42v-25z m0 600h-250v25h250v-25z m0-200h-250v25h250v-25z m-110-600c9-1 18-2 25-3s13-5 18-10v13h-43z m110 1000h-250v25h250v-25z" horiz-adv-x="234.4" />
<glyph glyph-name="quaver-C-low" unicode="&#xe81f;" d="m242 425l-39 0c1-9 3-16 6-23s5-14 7-21c6-17 13-32 22-46l17-21 24-29 44-51c33-43 50-88 50-136 0-11-1-23-3-34s-6-25-12-40c-4-11-8-21-11-28s-7-16-13-26l-15-1 17 44 6 18c2 6 4 13 5 19l3 22 1 12v20l-4 16-8 24c-6 21-18 40-34 56-14 18-30 32-48 41l-7 4c-3 1-5 3-8 4v-24h-42v-175h42v-25h-42v-169c0-3 0-5-1-6h75v-25h-82c-2-3-4-6-5-9s-4-7-8-11c-5-6-12-12-20-20s-19-14-31-19c-20-10-42-16-65-16-20 0-37 6-50 16-14 10-21 26-21 46v13h-73v25h80c1 4 3 7 6 11s5 6 7 8c7 8 14 16 22 22s17 13 28 18 21 10 29 12 16 4 25 4c28 0 48-6 59-17v117h-183v25h183v175h-183v25h183v175h-183v25h250v-25z m0 400h-250v25h250v-25z m0-200h-250v25h250v-25z m-3-375c-7 3-14 5-21 7s-13 2-18 2v-9h39z" horiz-adv-x="234.4" />
<glyph glyph-name="quaver-D-low" unicode="&#xe820;" d="m242 225l-42 0v-175h42v-25h-42v-58c0-20-7-40-22-59-4-7-11-15-19-22s-19-14-31-20c-20-11-42-16-65-16-20 0-37 5-50 16-7 6-13 13-16 21s-5 17-5 27c0 10 2 20 5 30s8 19 15 27c7 8 14 16 23 23s18 14 29 19c8 5 15 8 22 9s15 3 22 3h-116v25h183v175h-183v25h183v175h-183v25h183v100h25c2-13 4-25 7-36s6-22 9-31c2-6 3-13 6-18s4-10 7-15h13v-18l13-16 24-29 44-51c33-43 50-88 50-136 0-11-1-24-3-37s-6-28-12-43c-4-11-8-20-11-28s-7-17-13-26l-15-1 17 44 6 18c2 6 4 13 5 20l3 27 1 12v20l-4 16-8 24c-6 21-18 40-34 56-14 19-30 32-48 41-9 5-19 10-29 13s-20 5-28 5v-111h42v-25z m0 600h-250v25h250v-25z m0-200h-250v25h250v-25z m-110-600c9 0 18-1 25-3s13-5 18-10v13h-43z" horiz-adv-x="234.4" />
<glyph glyph-name="quaver-E-low" unicode="&#xe821;" d="m242 225l-42 0v-163c0-7 0-11-1-12h43v-25h-50c-1-3-2-7-4-11s-5-8-8-12c-5-7-11-14-19-20s-17-12-29-17c-10-5-22-9-33-11s-24-4-35-4c-20 0-37 5-50 16-15 11-22 27-22 48v36h9l5 8c2 3 4 6 6 8 7 8 14 16 23 24s18 15 29 20c22 10 42 15 60 15 15 0 26-1 33-4s13-6 18-12v116h-183v25h183v175h-183v25h183v175h-183v25h250v-25h-39c1-8 3-16 6-23l7-21c5-17 12-32 22-46l17-21 24-29 44-51c33-43 50-89 50-136 0-11-1-24-3-37s-6-28-12-43c-4-11-8-21-11-28s-7-17-13-26l-15-1 17 44 6 18c2 6 4 13 5 20l3 27 1 12v20l-4 16-8 24c-6 21-18 40-34 56-14 19-30 33-48 41l-7 4-8 4v-24h-42v-175h42v-25z m0 600h-250v25h250v-25z m-3-375c-7 3-14 5-21 7s-13 2-18 2v-9h39z" horiz-adv-x="234.4" />
<glyph glyph-name="quaver-F-low-1" unicode="&#xe822;" d="m242 225l-42 0v-61c0-19-7-39-22-60-5-7-11-14-19-21s-17-13-28-20c-8-4-16-8-26-9s-18-3-28-4h165v-25h-250v25h57c-13 1-25 6-36 16-14 10-21 25-21 45 0 10 2 20 5 30s8 19 15 27c7 8 14 16 23 23s18 14 29 19c9 4 17 7 26 10s16 4 23 5h-121v25h183v175h-183v25h183v175h-183v25h183v100h25c2-13 4-25 7-36s6-22 9-31c2-6 3-12 6-18s4-10 7-15h13v-18l13-16 24-29 44-51c33-43 50-88 50-136 0-11-1-24-3-37s-6-28-12-43c-4-11-8-21-11-28s-7-16-13-26l-15-1 17 44 6 18c2 6 4 13 5 20l3 27 1 12v20l-4 16-8 24c-6 21-18 39-34 56-14 19-30 33-48 41-9 6-19 10-29 13s-20 5-28 5v-111h42v-25h-42v-175h42v-25z m0 600h-250v25h250v-25z m-112-600c19-2 34-7 45-16v16h-45z" horiz-adv-x="234.4" />
<glyph glyph-name="quaver-G" unicode="&#xe823;" d="m242 425h-42v-163c0-7 0-11-1-12h43v-25h-50l-6-11c-2-4-4-8-8-12-5-7-11-14-18-20s-17-11-29-17c-10-5-22-9-33-11s-24-4-35-4c-20 0-37 6-50 16-14 10-21 25-21 43v41h9l5 8c2 3 4 5 6 8 7 8 14 16 22 24s18 15 29 20c22 10 42 15 60 15 15 0 26-1 33-4s14-6 19-12v116h-183v25h183v175h-183v25h183v175h-183v25h250v-25h-39c1-8 3-16 6-23l7-21c5-16 12-32 22-46l17-21 24-29 44-51c33-43 50-88 50-136 0-11-1-23-3-37s-6-28-12-43c-4-11-8-21-11-28s-7-16-13-26l-15-1 17 44 6 18c2 6 4 13 5 20l3 27 1 12v20c-2 8-3 14-4 16l-8 24c-6 21-18 39-34 56-14 19-30 33-48 41-2 1-5 3-7 4s-5 3-8 4v-24h-42v-175h42v-25z m0-400h-250v25h250v-25z m-3 625c-7 3-14 5-21 7s-13 2-18 2v-9h39z" horiz-adv-x="234.4" />
<glyph glyph-name="quaver-A" unicode="&#xe824;" d="m242 425l-42 0v-61c0-20-7-40-22-59-4-7-10-14-18-22s-17-13-30-19c-8-3-17-6-26-9s-17-4-27-5h165v-25h-250v25h57c-13 1-25 6-36 16-14 10-21 25-21 45 0 10 1 20 4 30s8 19 15 27c7 8 14 16 21 23s17 13 29 19c10 5 19 8 28 10s17 4 24 5h-121v25h183v175h-183v25h183v175h-183v25h183v100h25c2-13 4-25 7-36s6-21 9-31c2-6 3-12 6-18s4-10 7-15h13v-18l13-16 24-29 44-51c33-43 50-88 50-136 0-11-1-23-3-37s-6-28-12-43c-4-11-8-20-11-28s-7-16-13-26l-15-1 17 44 6 18c2 6 4 13 5 20l3 27 1 12v20l-4 16-8 24c-6 21-18 39-34 56-14 19-30 33-48 41-9 6-19 10-29 13s-20 5-28 5v-111h42v-25h-42v-175h42v-25z m0-400h-250v25h250v-25z m-112 400c19-2 34-7 45-16v16h-45z" horiz-adv-x="234.4" />
<glyph glyph-name="quaver-B" unicode="&#xe825;" d="m34 250l0 175h-42v25h52c2 3 3 6 5 10s4 8 7 11c6 8 13 15 20 21s16 12 28 18c11 5 23 9 34 12s22 3 33 3c20 0 36-6 50-18 14-10 21-25 21-45v-37h-7c-1-4-3-8-6-13s-5-9-9-13c-7-7-14-14-20-19s-15-11-27-16-22-9-33-11-20-3-30-3c-14 0-25 1-32 4s-13 7-19 12v-116h133c0 2-1 4-2 6s-2 6-3 9l-17 44 15-1c6-9 10-17 13-25l11-29 1-4h32v-25h-23c2-9 4-18 4-27s1-17 1-24c0-43-14-84-41-124h59v-25h-80l-32-33-24-29-17-21c-9-13-16-28-22-46-3-9-5-20-6-31s-2-24-2-36h-25v196h-42v25h42v175h-42v25h42z m25-25l0-175h77c4 3 7 6 10 10s7 8 10 12c16 17 28 36 34 56l6 18c2 4 2 7 3 8l3 14v20l-1 12-3 25h-139z m183 425v-25h-250v25h250z m0 200v-25h-250v25h250z m-183-834c7 0 14 1 22 2s16 4 24 7h-46v-9z" horiz-adv-x="234.4" />
<glyph glyph-name="quaver-C" unicode="&#xe826;" d="m34 250l0 175h-42v25h42v60c0 21 8 41 22 59 5 7 11 14 18 21s16 12 29 19c8 4 16 8 24 10s17 5 25 6h-160v25h250v-25h-57c14-3 26-9 36-17 14-10 21-25 21-45 0-10-1-20-4-29s-8-19-16-28c-6-8-14-16-22-23s-17-13-29-19c-13-7-27-12-42-14h113v-25h-183v-175h138l1 1v1c1 3 1 6 2 8s1 5 2 8v20l-1 12-3 27c-1 8-3 14-5 20s-4 12-6 18l-17 44 15-1c6-9 10-17 13-25s6-17 11-29c6-14 10-28 12-42s3-26 3-38v-12c0-7 0-11-1-12h19v-25h-24c-7-30-22-59-44-87l-44-51-24-29-6-8h142v-25h-161c-2-4-5-8-7-13l-7-18c-3-9-5-20-6-32s-2-24-2-37h-25v100h-42v25h42v175h-42v25h42z m25-137c8 0 16 2 24 5s16 8 25 13c18 10 34 23 48 41 16 18 27 35 33 53h-130v-112z m183 737v-25h-250v25h250z m-183-400h33c-14 2-25 7-33 15v-15z" horiz-adv-x="234.4" />
<glyph glyph-name="quaver-D" unicode="&#xe827;" d="m34 250v175h-42v25h42v160c0 10 1 15 1 15h-43v25h52l5 9 7 10c5 8 11 15 19 22s18 13 30 18c11 6 22 10 33 12s22 4 33 4c20 0 37-5 50-17 14-10 21-25 21-45v-38h-7c-3-6-7-13-12-20-6-8-14-15-23-22s-18-13-30-19c-20-9-40-14-60-14-14 0-25 1-32 4s-13 6-19 11v-115h133c0 1-1 3-2 6s-2 6-3 9l-17 44 15-1c6-9 10-18 13-25l11-29 2-4h31v-25h-23c2-9 4-18 4-27s1-16 1-24c0-43-14-84-41-124h59v-25h-79l-33-38-24-29-17-21c-9-13-16-28-22-46-2-7-4-13-5-20s-3-14-3-21h183v-25h-250v25h42v175h-42v25h42z m25 175l0-175h77c4 3 7 6 10 10s7 8 10 12c16 17 28 36 34 56l6 18c2 4 2 7 3 8s1 6 3 14v20l-1 12-3 25h-139z m183 425v-25h-250v25h250z m-183-637c15 0 30 4 46 12h-46v-12z" horiz-adv-x="234.4" />
<glyph glyph-name="quaver-E" unicode="&#xe828;" d="m34 450l0 175h-42v25h42v60c0 21 8 41 22 59 5 8 10 14 17 20s16 12 28 18c8 4 16 8 25 11s18 6 26 7h-160v25h250v-25h-57c14-3 26-9 36-17 14-10 21-25 21-45 0-10-1-20-4-30s-7-19-15-28c-6-8-14-15-23-22s-18-13-30-19c-14-7-27-12-41-14h113v-25h-183v-175h138l1 1v1c1 3 1 5 2 8s1 6 2 8v20l-1 12-3 27c-1 7-3 14-5 20s-4 12-6 18l-17 44 15-1c6-9 10-18 13-25l11-29c6-14 10-29 12-42s3-27 3-38v-12c0-7 0-11-1-12h19v-25h-24c-7-30-22-59-44-87l-44-51-24-29-6-8h142v-25h-160c-3-5-5-11-7-17s-5-11-8-17c-3-9-5-19-6-31s-2-23-2-37l-25 1v101h-42v25h42v175h-42v25h42z m25-137c8 0 16 2 24 5s16 8 25 13c18 9 34 23 48 41 16 18 27 35 33 53h-130v-112z m183-263v-25h-250v25h250z m-183 600h33c-14 2-25 7-33 15v-15z" horiz-adv-x="234.4" />
<glyph glyph-name="quaver-F" unicode="&#xe829;" d="m34 450v175h-42v25h42v160c0 9 1 14 1 15h-43v25h52l5 9c2 3 4 6 6 10 10 16 26 30 50 41 11 6 22 10 33 12s22 4 33 4c20 0 36-6 50-18 14-10 21-25 21-45v-38h-7c-1-4-3-8-6-14s-6-9-10-13c-7-7-14-13-21-18s-16-10-28-16c-22-10-42-15-60-15-14 0-25 2-32 4s-13 7-19 12v-115h133c0 2-1 4-2 6s-2 6-3 9l-17 44 15-1c6-9 10-18 13-25l11-29 2-4h31v-25h-23c2-9 4-18 4-27s1-16 1-24c0-43-14-84-41-124h59v-25h-79l-33-38-24-29-17-21c-9-13-16-28-22-46-2-6-4-13-5-20s-3-13-3-21h183v-25h-250v25h42v175h-42v25h42z m25 175l0-175h77c4 3 7 6 10 10s7 8 10 12c16 17 28 35 34 56l6 18c2 4 2 7 3 8l3 14v20l-1 12-3 25h-139z m183-575v-25h-250v25h250z m-183 363c15 0 30 4 46 12h-46v-12z" horiz-adv-x="234.4" />
<glyph glyph-name="quaver-G-high" unicode="&#xe82a;" d="m34 650v175h-42v25h42v60c0 21 8 41 22 59 5 8 11 15 18 21s16 13 29 19c23 11 46 16 68 16 20 0 36-6 50-18 14-10 21-24 21-44 0-10-1-20-4-29s-8-19-16-28c-6-8-14-15-22-23s-18-14-30-19c-14-7-27-12-41-14h113v-25h-183v-175h138c2 4 3 6 3 8s2 6 2 10v20l-1 12-3 27c-1 7-3 14-5 20s-4 12-6 18l-17 44 15-1c6-9 10-17 13-25l11-29c6-14 10-28 12-42s3-26 3-38v-12c0-7 0-11-1-12h19v-25h-24c-7-30-22-59-44-87l-44-51-24-29-6-8h142v-25h-160c-3-5-5-11-7-17s-5-11-8-17c-3-9-5-19-6-30s-2-23-2-37h-25v101h-42v25h42v175h-42v25h42z m25-137c8 0 16 2 24 5s16 8 25 13c18 10 34 23 48 41 16 17 27 35 33 53h-130v-112z m183-463v-25h-250v25h250z m0 200v-25h-250v25h250z m-183 600h33c-14 2-25 7-33 15v-15z" horiz-adv-x="234.4" />
<glyph glyph-name="quaver-A-high" unicode="&#xe82b;" d="m34 650l0 175h-42v25h42v160c0 10 1 15 1 15h-74v25h83c2 3 3 6 4 9s4 6 6 10c10 16 27 30 49 40 21 11 43 16 66 16 20 0 36-6 50-18 16-10 23-29 23-57h74v-25h-81c-3-9-7-16-11-21-5-7-13-14-22-21s-20-13-32-19c-20-9-40-14-60-14-14 0-25 1-32 4s-13 6-19 11v-115h133c0 1-1 3-2 6s-2 6-3 9l-17 44 15-1c6-9 10-17 13-25s6-17 11-29c1-1 1-3 2-4h31v-25h-23c2-9 4-18 4-27s1-16 1-24c0-43-14-84-41-124h59v-25h-79l-33-38-24-29-17-21c-10-14-17-29-22-46-2-6-4-13-5-21s-3-14-3-20h183v-25h-250v25h42v175h-42v25h42z m25 175l0-175h77c4 3 7 6 10 10s7 8 10 12c16 17 28 36 34 56l6 18c2 4 2 7 3 8l3 14v20l-1 12-3 25h-139z m183-575v-25h-250v25h250z m0-200v-25h-250v25h250z m-183 563c15 0 30 4 46 12h-46v-12z" horiz-adv-x="234.4" />
<glyph glyph-name="quaver-B-up" unicode="&#xe82c;" d="m242 625l-42 0v-163c0-7 0-11-1-12h43v-25h-50c-2-4-4-7-6-11s-4-7-8-11c-9-14-25-27-50-39-10-5-21-9-32-11s-23-3-34-3c-10 0-19 1-27 3s-15 6-22 11c-14 10-21 25-21 45v41h9l5 8c2 3 4 6 6 8 7 8 14 16 22 24s18 14 30 20c22 10 42 15 60 15 15 0 26-1 33-4s13-7 18-12v116h-183v25h183v175h-183v25h183v198h25c2-13 4-25 7-36s6-21 9-31c5-17 12-32 22-46l17-21 24-29 44-51c33-43 50-88 50-136 0-11-1-24-3-37s-6-28-12-43c-4-11-8-21-11-28s-7-16-13-26l-15-1 17 44 6 18c2 6 4 13 5 20l3 27 1 12v20l-4 16-8 24c-6 21-18 40-34 56-14 19-30 32-48 41l-7 4-8 4v-24h-42v-175h42v-25z m0-400h-250v25h250v-25z m0-200h-250v25h250v-25z m-3 825c-7 3-14 5-21 7s-13 2-18 2v-9h39z" horiz-adv-x="234.4" />
<glyph glyph-name="quarter-A-low" unicode="&#xe82d;" d="m242 225l-41 0v-175h41v-25h-41v-175h74v-25h-74v-162c0-8 0-12-1-13h75v-25h-84c-1-3-3-6-4-9l-6-9c-14-18-31-32-53-42s-42-15-63-15c-20 0-37 6-52 16-14 11-21 25-21 43v16h-73v25h84c2 3 3 5 5 8l5 7c7 8 15 15 24 23s20 15 31 22c12 6 23 9 33 12s20 3 29 3c10 0 18-1 25-4s14-6 21-12v116h-257v25h257v175h-184v25h184v175h-184v25h250v-25z m0 400h-250v25h250v-25z m0 200h-250v25h250v-25z m0-400h-250v25h250v-25z" horiz-adv-x="234.4" />
<glyph glyph-name="quarter-C-low" unicode="&#xe82e;" d="m242 225l-41 0v-175h41v-25h-41v-175h74v-26h-83c-1-3-3-6-5-8s-4-5-6-9c-14-18-32-32-54-42s-44-15-65-15c-18 0-34 6-49 16-14 11-21 25-21 43v16l-73-1v26h82c2 3 4 6 6 8s4 5 6 8c7 8 15 15 24 22s20 15 31 22c12 6 23 9 33 12s20 3 29 3c10 0 18-1 25-4s14-7 21-13v117h-184v25h184v175h-184v25h184v175h-184v25h250v-25h-41v-175h41v-25z m0 600h-250v25h250v-25z m0-200h-250v25h250v-25z" horiz-adv-x="234.4" />
<glyph glyph-name="quarter-D-low" unicode="&#xe82f;" d="m242 225l-41 0v-175h41v-25h-41v-59c0-18-6-36-20-56-14-18-32-32-54-43s-43-17-64-17c-19 0-35 5-50 16-7 6-13 12-16 20s-5 17-5 26c0 19 7 38 21 56 7 8 15 15 24 23s20 15 31 22c10 6 18 9 26 10s16 2 24 2h-126v25h184v175h-184v25h184v175h-184v25h184v100h25v-100h41v-25h-41v-175h41v-25z m0 400h-250v25h250v-25z m0 200h-250v25h250v-25z m-105-800c7 0 14-1 20-3s12-5 19-11v14h-39z" horiz-adv-x="234.4" />
<glyph glyph-name="quarter-E-low" unicode="&#xe830;" d="m242 225l-41 0v-169c0-3 0-5-1-6h42v-25h-50c-2-3-4-6-5-9l-6-9c-14-18-32-32-54-42s-43-15-64-15c-19 0-35 5-50 16-14 11-21 25-21 43v41h11c2 3 3 5 5 8s3 5 5 7c7 8 15 15 24 23s20 15 31 22c12 6 23 9 33 12s20 3 29 3c10 0 18-1 25-4s14-7 21-13v117h-184v25h184v175h-184v25h184v175h-184v25h250v-25h-41v-175h41v-25h-41v-175h41v-25z m0 600h-250v25h250v-25z" horiz-adv-x="234.4" />
<glyph glyph-name="quarter-F-low-1" unicode="&#xe831;" d="m242 225l-41 0v-62c0-18-6-36-20-56-13-17-30-31-51-40s-41-15-61-17h173v-25h-250v25h59c-7 1-14 3-20 5s-12 6-18 11c-14 11-21 25-21 43 0 20 7 38 21 56 7 8 15 15 24 23s20 15 31 22c19 8 36 13 51 15h-127v25h184v175h-184v25h184v175h-184v25h184v100h25v-100h41v-25h-41v-175h41v-25h-41v-175h41v-25z m0 600h-250v25h250v-25z m-110-600c14-2 29-7 44-17v17h-44z" horiz-adv-x="234.4" />
<glyph glyph-name="quarter-G" unicode="&#xe832;" d="m242 425l-41 0v-169c0-3 0-5-1-6h42v-25h-51c-1-3-3-6-4-9l-6-9c-14-18-32-32-54-42s-43-15-64-15c-19 0-35 6-50 16-14 11-21 25-21 43v7c0 5 0 8 1 9h-1v25h11c2 3 3 5 5 8l5 7c7 8 15 15 24 23s20 15 31 22c12 6 23 9 33 12s20 3 29 3c10 0 18-1 25-4s14-7 21-13v117h-184v25h184v175h-184v25h184v175h-184v25h250v-25h-41v-175h41v-25h-41v-175h41v-25z m0-400h-250v25h250v-25z" horiz-adv-x="234.4" />
<glyph glyph-name="quarter-A" unicode="&#xe833;" d="m242 450l0-25h-41v-62c0-18-6-36-20-56-13-17-30-31-51-40s-41-15-61-17h173v-25h-250v25h62c-13 1-27 6-41 16-14 11-21 25-21 43 0 20 7 38 21 56 7 8 15 15 24 23s20 15 31 22c20 8 38 13 52 15h-128v25h184v175h-184v25h184v175h-184v25h184v100h25v-100h41v-25h-41v-175h41v-25h-41v-175h41z m0-400v-25h-250v25h250z m-66 375h-45c14-2 29-7 45-17v17z" horiz-adv-x="234.4" />
<glyph glyph-name="quarter-B" unicode="&#xe834;" d="m33 250l0 163c0 2 0 4 1 6s0 4 0 6h-42v25h50c1 3 3 7 5 10s4 6 6 9c14 18 32 32 54 42s44 15 64 15c19 0 36-5 50-16 14-11 21-26 21-43v-42h-11c-1-2-3-5-4-7s-4-5-6-7c-6-7-14-14-24-22s-20-15-31-23c-12-5-23-9-33-12s-20-5-29-5c-10 0-18 2-25 6s-13 8-21 13v-118h184v-25h-184v-175h184v-25h-184v-196h-25v196h-41v25h41v175h-41v25h41z m209 600v-25h-250v25h250z m0-200v-25h-250v25h250z" horiz-adv-x="234.4" />
<glyph glyph-name="quarter-C" unicode="&#xe835;" d="m33 250l0 175h-41v25h41v63c0 18 7 37 20 56 13 16 28 28 47 38s36 16 55 18h-163v25h250v-25h-54c11-2 22-7 33-15 14-11 21-25 21-43 0-19-7-38-21-56-6-7-14-14-24-22s-20-16-31-23c-13-9-28-14-45-16h121v-25h-184v-175h184v-25h-184v-175h184v-25h-184v-96h-25v96h-41v25h41v175h-41v25h41z m209 600v-25h-250v25h250z m-146-400c-15 3-28 9-38 18v-18h38z" horiz-adv-x="234.4" />
<glyph glyph-name="quarter-D" unicode="&#xe836;" d="m33 250l0 175h-41v25h41v163c0 2 0 4 1 6s0 4 0 6h-42v25h50c1 4 3 7 5 10s4 6 6 9c14 18 32 32 54 42s44 15 64 15c19 0 36-5 50-16 14-11 21-25 21-43v-42h-11c-1-2-3-5-4-7s-4-5-6-7c-6-7-14-15-24-22s-20-15-31-23c-12-5-23-9-33-12s-20-5-29-5c-10 0-18 2-25 6s-13 8-21 13v-118h184v-25h-184v-175h184v-25h-184v-175h184v-25h-250v25h41v175h-41v25h41z m209 600v-25h-250v25h250z" horiz-adv-x="234.4" />
<glyph glyph-name="quarter-E" unicode="&#xe837;" d="m33 450l0 175h-41v25h41v63c0 18 7 37 20 56 13 16 28 28 47 38s37 16 56 18h-164v25h250v-25h-54c11-2 22-7 33-15 14-11 21-25 21-43 0-19-7-38-21-56-6-7-14-15-24-22s-20-15-31-23c-13-8-28-14-45-16h121v-25h-184v-175h184v-25h-184v-175h184v-25h-184v-99h-25v99h-41v25h41v175h-41v25h41z m209-425h-250v25h250v-25z m-146 625c-15 4-28 10-38 18v-18h38z" horiz-adv-x="234.4" />
<glyph glyph-name="quarter-F" unicode="&#xe838;" d="m33 450l0 175h-41v25h41v163c0 2 0 4 1 6s0 4 0 6h-42v25h50c1 4 3 7 5 10s4 6 6 9c14 18 32 32 54 42s44 15 64 15c19 0 36-5 50-16 14-11 21-26 21-43v-42h-11c-1-2-3-5-4-7s-4-5-6-7c-6-7-14-15-24-22s-20-15-31-23c-12-5-23-9-33-12s-20-5-29-5c-10 0-18 2-25 6s-13 8-21 13v-118h184v-25h-184v-175h184v-25h-184v-175h184v-25h-250v25h41v175h-41v25h41z m209-425h-250v25h250v-25z" horiz-adv-x="234.4" />
<glyph glyph-name="quarter-G-high" unicode="&#xe839;" d="m-8 650l41 0v175h-41v25h41v63c0 18 7 37 20 56 14 18 32 32 54 42s44 15 64 15c19 0 36-5 50-16 14-11 21-26 21-43 0-19-7-38-21-56-6-7-14-14-24-22s-20-15-31-23c-12-8-27-14-46-16h122v-25h-184v-175h184v-25h-184v-175h184v-25h-184v-99h-25v99h-41v25h41v175h-41v25z m0-400h250v-25h-250v25z m250-200v-25h-250v25h250z m-184 800h39c-15 3-28 9-39 18v-18z" horiz-adv-x="234.4" />
<glyph glyph-name="quarter-A-high" unicode="&#xe83a;" d="m33 650l0 175h-41v25h41v163c0 2 0 4 1 6s0 4 0 6h-74v25h82c1 3 3 7 5 10s4 6 6 9c14 18 32 32 54 42 22 10 44 15 64 15 19 0 36-5 50-16 14-11 21-25 21-43v-17h74v-25h-85c-1-2-3-5-4-7s-4-5-6-7c-6-7-14-14-24-22s-20-16-31-23c-12-5-23-9-33-12s-20-5-29-5c-10 0-18 2-25 6s-13 8-21 13v-118h184v-25h-184v-175h184v-25h-184v-175h184v-25h-250v25h41v175h-41v25h41z m209-400v-25h-250v25h250z m0-225h-250v25h250v-25z" horiz-adv-x="234.4" />
<glyph glyph-name="quarter-B-up" unicode="&#xe83b;" d="m242 625l-41 0v-175h41v-25h-48c-1-4-3-8-5-12s-5-8-8-12c-14-18-32-31-54-39s-43-12-64-12c-19 0-35 5-50 16-7 6-13 11-16 16s-5 12-5 21c0 4 0 8 1 14s0 17-1 33h10l8 12c4 5 6 8 6 8 7 8 15 14 23 20s18 13 29 20c12 5 23 9 33 12s20 3 29 3c10 0 18-1 25-4s14-8 21-13v117h-184v25h184v175h-184v25h184v194h25v-194h41v-25h-41v-175h41v-25z m0-400h-250v25h250v-25z m0-200h-250v25h250v-25z" horiz-adv-x="234.4" />
<glyph glyph-name="half-A-low-1" unicode="&#xe83c;" d="m242 225l-45 0v-175h45v-25h-45v-175h78v-25h-78v-175h78v-25h-86c-1-3-3-7-5-10l-9-14c-14-17-31-30-51-40-21-11-40-17-57-17-18 0-32 2-42 6-12 4-20 12-25 24l-6 20c0 2 0 6 0 11s-1 10-1 14-1 6-1 6h-73v25h78c5 11 10 20 16 26 14 16 32 29 53 39s43 15 64 15c10 0 17-1 23-3s12-7 19-12v110h-253v25h253v175h-180v25h180v175h-180v25h250v-25z m0 200h-250v25h250v-25z m0 200h-250v25h250v-25z m0 200h-250v25h250v-25z m-213-1200c0 0-1 0-1-1-12-15-18-27-18-34 2-8 9-14 19-18 13 0 26 4 38 10 15 5 31 15 49 29 3 1 6 3 9 6s6 5 9 8h-105z m27 27c0 0-1 0-3-2h96c13 15 19 27 19 36 0 8-5 14-15 17-12 0-26-4-41-12s-33-22-56-39z" horiz-adv-x="234.4" />
<glyph glyph-name="half-B-low" unicode="&#xe83d;" d="m242 25l-45 0v-175h78v-25h-78v-67c0-8 0-13-1-14s-2-5-5-12c-1-4-3-8-6-12s-6-10-10-15c-14-17-31-30-51-40-10-5-20-10-30-13s-18-5-27-5c-18 0-32 2-42 6-11 4-19 12-25 25l-6 20c-1 3-1 7-1 12s-1 10-1 15c0 19 7 38 21 55 12 12 24 22 37 28s27 12 42 17h-173v25h253v175h-180v25h180v175h-180v25h180v94h25v-94h45v-25h-45v-175h45v-25z m-186-269c-6-4-16-14-28-28-12-15-18-27-18-34 2-8 9-14 19-18 13 0 26 4 38 10 15 5 31 15 49 29 5 3 11 7 17 13s13 12 20 21 12 16 13 23 2 13 2 18c0 8-5 14-15 17-12 0-26-4-41-12s-33-22-56-39z m186 1069h-250v25h250v-25z m0-200h-250v25h250v-25z m0-200h-250v25h250v-25z m-70-600l-20 0c4-1 7-2 10-2s7-2 10-4v6z" horiz-adv-x="234.4" />
<glyph glyph-name="half-C-low" unicode="&#xe83e;" d="m242 225l-45 0v-175h45v-25h-45v-175h78v-25h-86c-1-3-3-6-5-8s-5-6-9-12c-14-17-31-30-51-40-21-11-40-17-57-17-18 0-32 2-42 6-12 4-20 12-25 24l-6 20c-1 7-2 16-2 27h-73v25h77l8 17c3 5 6 10 9 13 14 16 32 29 53 39s43 15 64 15c10 0 17-1 23-3s12-7 19-12v106h-180v25h180v175h-180v25h180v175h-180v25h250v-25h-45v-175h45v-25z m0 400h-250v25h250v-25z m0 200h-250v25h250v-25z m-186-969c0 0-2-1-3-2s-3-3-4-4h107c7 7 10 15 11 22s1 13 1 18c0 8-5 14-15 17-12 0-26-4-41-12s-33-21-56-39z m-31-31c-6-7-10-13-12-18s-3-9-3-13c2-8 9-14 19-18 13 0 26 3 38 10 8 3 15 6 23 10s16 10 26 16c3 2 5 3 8 6s5 4 8 7h-107z" horiz-adv-x="234.4" />
<glyph glyph-name="half-D-low" unicode="&#xe83f;" d="m242 225l-45 0v-175h45v-25h-45v-68c0-8 0-12-1-14s-2-5-5-12c-1-4-3-8-6-12l-10-15c-14-16-31-30-51-40-21-11-40-17-57-17-18 0-32 2-42 6-12 4-20 12-25 24l-6 20c-1 4-1 8-1 12s-1 10-1 15c0 19 7 38 21 55 12 12 24 22 37 29s27 12 42 17h-100v25h180v175h-180v25h180v175h-180v25h180v94h25v-94h45v-25h-45v-175h45v-25z m-186-270c-6-5-16-14-28-28-12-15-18-27-18-34 2-8 9-14 19-18 13 0 26 4 38 10 15 5 31 14 49 29 5 3 11 7 17 13s13 12 20 21 12 17 13 23 2 13 2 18c0 8-5 14-15 17-12 0-26-4-41-12s-33-21-56-39z m186 670h-250v25h250v-25z m0 200h-250v25h250v-25z m-70-800h-19c4-1 7-2 10-3s6-2 9-4v7z" horiz-adv-x="234.4" />
<glyph glyph-name="half-E-low-1" unicode="&#xe840;" d="m242 225h-45v-175h45v-25h-53c-2-4-4-7-6-9s-4-6-8-12c-14-16-31-30-51-40-21-11-40-17-57-17-18 0-32 2-42 6-12 4-20 12-25 24l-6 20c-1 4-1 7-1 11s-1 9-1 14v28h5c4 9 10 18 16 26 14 16 32 29 53 39s43 15 64 15c10 0 17-1 23-4s12-7 19-12v111h-180v25h180v175h-180v25h180v175h-180v25h250v-25h-45v-175h45v-25h-45v-175h45v-25z m0 600h-250v25h250v-25z m-218-800c-7-7-11-13-12-19s-2-9-2-13c2-8 9-14 19-18 13 0 26 3 38 10 15 5 31 14 49 29l8 4c3 2 6 4 9 7h-109z m32 27c-1-1-2-2-3-2h104c7 8 10 14 11 20s0 11 0 15c0 8-5 14-15 17-12 0-26-4-41-12s-33-21-56-38z" horiz-adv-x="234.4" />
<glyph glyph-name="half-G" unicode="&#xe841;" d="m242 425l-45 0v-175h45v-25h-53c-1-3-3-6-5-10l-9-14c-14-16-31-30-51-40-21-11-40-17-57-17-18 0-32 2-42 6-12 4-20 12-25 24l-6 20c-1 4-1 8-1 12s-1 10-1 15v29h5c4 9 10 18 16 26 14 16 32 29 53 39s43 15 64 15c10 0 17-1 23-3s12-6 19-12v110h-180v25h180v175h-180v25h180v175h-180v25h250v-25h-45v-175h45v-25h-45v-175h45v-25z m0-400h-250v25h250v-25z m-214 199c-12-15-18-26-18-34 2-8 9-14 19-18 13 0 26 4 38 10 15 5 31 15 49 29 5 2 11 7 18 14h-105z m28 28c-1-1-2-2-3-2h104c7 8 10 14 11 20s0 12 0 16c0 8-5 14-15 17-12 0-26-4-41-12s-33-21-56-39z" horiz-adv-x="234.4" />
<glyph glyph-name="half-A" unicode="&#xe842;" d="m242 425l-45 0v-71c0-8 0-12-1-14s-2-5-5-12c-1-4-3-8-6-12l-10-15c-14-16-31-30-51-40-4-2-9-5-13-6s-9-3-13-5h144v-25h-250v25h33c-12 4-20 12-25 24l-6 20c-1 4-1 8-1 12s-1 10-1 15c0 19 7 38 21 55 22 24 48 40 79 49h-100v25h180v175h-180v25h180v175h-180v25h180v94h25v-94h45v-25h-45v-175h45v-25h-45v-175h45v-25z m-186-73c-6-5-16-14-28-28-12-15-18-26-18-34 2-8 9-14 19-18 13 0 26 4 38 10 15 5 31 14 49 29 5 3 11 7 17 13s13 13 20 21 12 17 13 23 2 13 2 18c0 8-5 14-15 17-12 0-26-4-41-12s-33-21-56-39z m186-327h-250v25h250v-25z m-70 400h-20c7-2 14-6 20-10v10z" horiz-adv-x="234.4" />
<glyph glyph-name="half-B" unicode="&#xe843;" d="m37 250l0 175h-45v25h55c2 3 4 6 6 9s4 6 6 10c15 17 32 30 51 40 22 12 40 17 57 17 18 0 32-2 42-6 12-4 21-12 25-24l6-20c1-3 1-7 2-12s0-9 0-15v-24h-3c-4-10-10-21-18-31-14-16-31-29-53-39s-42-15-64-15c-9 0-16 1-22 4s-12 6-20 11v-105h180v-25h-180v-175h180v-25h-180v-196h-25v196h-45v25h45v175h-45v25h45z m205 600v-25h-250v25h250z m0-200v-25h-250v25h250z m-64-232l6 5c1 1 2 2 3 2h-106c-7-9-11-16-13-23s-2-13-2-18c0-9 5-14 15-17 13 0 26 4 41 13s33 21 56 38z m32 32c9 13 14 24 14 30-2 8-8 14-19 18-13 0-25-3-38-10-15-4-31-14-49-29-2-1-5-2-7-4l-6-5h105z" horiz-adv-x="234.4" />
<glyph glyph-name="half-C" unicode="&#xe844;" d="m37 250l0 175h-45v25h45v70c0 8 0 13 1 14s2 6 5 12c2 4 4 8 7 13l9 14c15 17 32 30 51 40 9 5 18 9 29 12h-147v25h250v-25h-35c1 0 1-1 2-1 12-4 21-12 25-24l6-20c1-3 1-7 2-12s0-9 0-15c0-20-7-38-21-55-9-11-21-21-34-29s-27-15-42-19h97v-25h-180v-175h180v-25h-180v-175h180v-25h-180v-92h-25v92h-45v25h45v175h-45v25h45z m141 272c7 5 16 14 28 28 12 15 18 26 18 34-2 8-8 14-19 18-13 0-25-3-38-10-15-4-31-14-49-29-5-3-11-7-17-12s-12-13-20-22-11-16-13-23-2-13-2-18c0-9 5-14 15-17 13 0 26 4 41 13s33 21 56 38z m64 328v-25h-250v25h250z m-180-400h18c-6 2-12 5-18 9v-9z" horiz-adv-x="234.4" />
<glyph glyph-name="half-D" unicode="&#xe845;" d="m37 250l0 175h-45v25h45v175h-45v25h53c2 4 4 7 6 10l8 13c15 17 32 30 51 40 22 12 40 17 57 17 18 0 32-2 42-6 12-4 21-12 25-24l6-20c1-3 1-7 2-12s0-10 0-15v-28h-5c-1-4-3-9-6-13l-10-14c-14-16-31-29-53-39s-42-15-64-15c-9 0-16 2-22 4s-12 6-20 11v-109h180v-25h-180v-175h180v-25h-180v-175h180v-25h-250v25h45v175h-45v25h45z m205 600v-25h-250v25h250z m-36-200c12 15 18 26 18 34-2 8-8 14-19 18-13 0-25-3-38-10-15-5-31-14-49-29-2-1-5-3-8-5s-6-4-9-8h105z m-28-28c1 1 2 2 2 2s2 1 2 1h-104c-6-7-10-14-11-20s-1-12-1-17c0-8 5-14 15-17 13 0 26 4 41 13s33 21 56 38z" horiz-adv-x="234.4" />
<glyph glyph-name="half-E" unicode="&#xe846;" d="m37 450l0 175h-45v25h45v70c0 8 0 13 1 14s2 6 5 12c2 4 4 9 7 13s6 9 9 14c15 17 32 30 51 40 9 5 18 9 29 12h-147v25h250v-25h-35c1-1 1-1 2-1 12-4 21-12 25-24l6-20c1-3 1-7 2-12s0-9 0-15c0-20-7-38-21-55-9-11-21-21-34-29s-27-15-42-19h97v-25h-180v-175h180v-25h-180v-175h180v-25h-180v-95h-25v95h-45v25h45v175h-45v25h45z m141 272c7 5 16 14 28 28 12 15 18 26 18 34-2 8-8 14-19 18-13 0-25-3-38-10-15-4-31-14-49-29-5-2-11-7-17-12s-12-13-20-22-11-16-13-23-2-12-2-18c0-8 5-14 15-17 13 0 26 4 41 13s33 21 56 38z m64-697h-250v25h250v-25z m-180 625h18c-6 2-12 5-18 9v-9z" horiz-adv-x="234.4" />
<glyph glyph-name="half-F" unicode="&#xe847;" d="m37 450l0 175h-45v25h45v175h-45v25h53l6 11c2 3 5 8 8 12 15 17 32 30 51 40 22 11 40 17 57 17 18 0 32-2 42-6 12-4 21-12 25-24l6-20c1-3 1-7 2-12s0-9 0-15v-28h-5c-1-4-3-9-6-13l-10-14c-14-16-31-29-53-39s-42-15-64-15c-9 0-16 1-22 4s-12 6-20 11v-109h180v-25h-180v-175h180v-25h-180v-175h180v-25h-250v25h45v175h-45v25h45z m205-425h-250v25h250v-25z m-36 825c12 15 18 26 18 34-2 8-8 14-19 18-13 0-25-3-38-10-15-5-31-14-49-29-2-1-5-3-8-5s-6-4-9-8h105z m-28-28c1 1 2 1 2 2s2 0 2 1h-104c-6-7-10-14-11-20s-1-12-1-17c0-8 5-14 15-17 13 0 26 5 41 13s33 21 56 38z" horiz-adv-x="234.4" />
<glyph glyph-name="half-G-high" unicode="&#xe848;" d="m37 650v175h-45v25h45v70c0 8 0 13 1 14s2 6 5 12c2 4 4 8 7 13l9 14c15 17 32 30 51 40 22 12 40 17 57 17 18 0 32-2 42-6 12-4 21-12 25-24l6-20c1-3 1-7 2-12s0-9 0-15c0-20-7-38-21-55-9-11-21-21-34-29s-27-15-42-19h97v-25h-180v-175h180v-25h-180v-175h180v-25h-180v-95h-25v95h-45v25h45v175h-45v25h45z m141 272c7 5 16 14 28 28 12 15 18 26 18 34-2 8-8 14-19 18-13 0-25-3-38-10-15-4-31-14-49-29-5-2-11-6-17-12s-12-13-20-22-11-16-13-23-2-12-2-18c0-8 5-14 15-17 13 0 26 4 41 13s33 21 56 38z m64-897h-250v25h250v-25z m0 225v-25h-250v25h250z m-180 600h18c-6 2-12 5-18 9v-9z" horiz-adv-x="234.4" />
<glyph glyph-name="half-A-high" unicode="&#xe849;" d="m37 650l0 175h-45v25h45v175h-74v25h82c2 4 4 7 6 11 2 3 5 8 8 12 15 17 32 30 51 40 22 12 40 17 57 17 18 0 32-2 42-6 11-4 20-12 25-24l6-20c0-2 0-5 1-10s0-9 1-13 0-6 0-7h74v-25h-79c-1-5-3-9-6-13l-10-14c-14-16-31-29-53-39s-42-15-64-15c-9 0-16 1-22 4s-12 6-20 11v-109h180v-25h-180v-175h180v-25h-180v-175h180v-25h-250v25h45v175h-45v25h45z m205-400v-25h-250v25h250z m0-225h-250v25h250v-25z m-36 1025c12 15 18 26 18 34-2 8-8 14-19 18-13 0-25-3-38-10-16-5-32-15-49-29-2-1-5-3-8-5s-6-4-9-8h105z m-28-28c1 1 2 2 2 2s2 1 2 1h-104c-6-7-10-14-11-20s-1-12-1-17c0-9 5-14 15-17 13 0 26 4 41 13s33 21 56 38z" horiz-adv-x="234.4" />
<glyph glyph-name="half-B-up" unicode="&#xe84a;" d="m242 625h-45v-175h45v-25h-53c-1-2-3-6-5-10s-5-8-9-14c-14-16-31-30-51-40-21-11-40-17-57-17-18 0-32 2-42 6-12 4-20 12-25 24l-6 20c-1 4-1 8-1 12s-1 10-1 15v29h5c4 9 10 18 16 26 14 16 32 29 53 39s43 15 64 15c10 0 17-1 23-3s12-6 19-12v110h-180v25h180v175h-180v25h180v194h25v-194h45v-25h-45v-175h45v-25z m0-400h-250v25h250v-25z m0-200h-250v25h250v-25z m-214 399c-12-15-18-26-18-34 2-8 9-14 19-18 13 0 26 3 38 10 15 5 31 14 49 29 5 2 11 7 18 14h-105z m28 28c-1-1-2-2-3-2h104c7 8 10 14 11 20s0 12 0 16c0 8-5 14-15 17-12 0-26-4-41-12s-33-21-56-39z" horiz-adv-x="234.4" />
<glyph glyph-name="whole-A-low" unicode="&#xe84b;" d="m492-375l-111 0c-3-19-12-33-26-44-17-15-39-27-66-35-13-4-26-7-39-8s-25-3-36-3c-23 0-48 3-74 10s-48 17-68 33c-16 14-26 30-30 47h-100v25h100c4 22 14 39 30 52 20 16 41 27 65 33 10 3 22 6 35 8s25 2 36 2c36 0 60-3 74-10 26-5 49-16 69-33 17-13 28-30 31-52h110v-25z m0 200h-550v25h550v-25z m0 600h-500v25h500v-25z m0-400h-500v25h500v-25z m0 600h-500v25h500v-25z m0 200h-500v25h500v-25z m0-600h-500v25h500v-25z m-347-575l130 0-4 12c-2 7-5 13-8 19s-8 12-13 17c-7 10-15 17-25 21s-20 5-33 5c-15-2-27-7-35-15s-12-25-12-51v-8z m3-25c1-1 2-2 2-3s1-3 2-6l9-16c3-6 7-11 11-17 8-10 17-18 27-21s20-6 31-6c20 2 33 7 39 16 6 9 9 26 9 51v2h-130z" horiz-adv-x="484.4" />
<glyph glyph-name="whole-B-low" unicode="&#xe84c;" d="m492-151l0-24h-185c16-6 31-14 44-26 21-14 31-35 31-62 0-23-9-43-27-59-17-15-39-27-66-35-13-4-26-7-39-8s-25-3-36-3c-23 0-48 3-74 10s-48 17-68 33c-20 16-30 37-30 62s10 46 30 62c15 13 29 21 43 26h-173v24h550z m-347-94c0-10 0-17 1-22s3-11 6-20c3-5 6-11 9-16s7-11 11-17c8-11 17-18 27-21s21-6 32-6c19 2 31 7 37 15 3 5 6 11 8 20s2 19 2 32c0 7 0 14-2 20s-3 13-5 19c-2 7-5 13-8 19s-8 12-13 17c-15 20-35 30-60 30-15-2-27-8-34-17s-11-27-11-53z m347 495v-25h-500v25h500z m0 600v-25h-500v25h500z m0-200v-25h-500v25h500z m0-200v-25h-500v25h500z m0-400v-25h-500v25h500z" horiz-adv-x="484.4" />
<glyph glyph-name="whole-C-low" unicode="&#xe84d;" d="m492-175l-111 0c-3-19-12-35-26-47-17-15-39-27-66-35-13-4-26-7-39-8s-25-3-36-3c-23 0-48 3-74 10s-48 17-68 33c-16 14-26 31-30 50h-100v25h101c4 21 13 38 29 49 19 16 41 27 65 33 10 4 22 6 35 8s25 2 36 2c34 0 59-3 74-10 26-5 49-16 69-33 17-12 27-28 30-49h111v-25z m0 1000h-500v25h500v-25z m0-200h-500v25h500v-25z m0-600h-500v25h500v-25z m0 200h-500v25h500v-25z m0 200h-500v25h500v-25z m-345-600c1-1 1-3 2-5s2-4 3-7l9-17c3-5 7-11 11-16 8-11 17-18 27-21s21-6 32-6c18 2 31 8 38 17 4 5 6 11 7 19s2 18 2 31v5h-131z m-2 25l129 0-3 9c-2 7-5 13-8 19s-8 12-13 17c-7 10-15 17-25 21s-20 5-33 5c-15-2-27-7-35-15s-12-25-12-51v-5z" horiz-adv-x="484.4" />
<glyph glyph-name="whole-D-low" unicode="&#xe84e;" d="m42-63c0 25 10 46 30 62 15 13 29 21 43 26h-123v25h500v-25h-185c16-6 31-14 44-26 21-15 31-35 31-62 0-23-9-43-27-59-17-15-39-27-66-35-13-4-26-7-39-8s-25-3-36-3c-23 0-48 3-74 10s-48 17-68 33c-20 16-30 37-30 62z m103 18c0-10 0-17 1-21s3-12 6-21l9-16c3-6 7-12 11-17 8-11 17-18 28-21s21-6 32-6c10 2 17 4 23 8s10 7 13 12 6 11 8 17 2 17 2 30c0 7 0 13-2 20s-3 13-5 19c-2 7-5 13-8 19s-8 12-13 17c-15 20-35 30-60 30-15-2-27-7-34-17s-11-27-11-53z m347 270h-500v25h500v-25z m0 600h-500v25h500v-25z m0-200h-500v25h500v-25z m0-200h-500v25h500v-25z" horiz-adv-x="484.4" />
<glyph glyph-name="whole-E-low" unicode="&#xe84f;" d="m492 25l-111 0c-3-19-12-33-26-44-17-15-39-27-66-35-13-4-26-7-39-8s-25-3-36-3c-23 0-48 3-74 9s-48 18-68 34c-16 14-26 30-30 47h-50v25h51c4 22 13 38 29 49 20 16 41 27 65 33 10 4 22 6 35 8s25 2 36 2c34 0 58-3 74-10 26-5 49-16 69-33 17-13 27-29 30-49h111v-25z m0 200h-500v25h500v-25z m0 400h-500v25h500v-25z m0 200h-500v25h500v-25z m0-400h-500v25h500v-25z m-347-375l129 0-3 9c-2 7-5 13-8 19s-8 12-13 17c-7 10-15 17-25 21s-20 5-33 5c-15-2-27-7-35-15s-12-25-12-51v-5z m3-25c1-1 2-2 2-3s1-3 2-6l9-16c3-6 7-12 11-17 8-10 17-18 27-21s20-6 31-6c17 2 29 8 36 17 3 5 6 11 9 19s3 18 3 31v2h-130z" horiz-adv-x="484.4" />
<glyph glyph-name="whole-F-low-1" unicode="&#xe850;" d="m492 225h-185c8-3 16-7 23-11s14-9 21-15c21-14 31-35 31-62 0-23-9-43-27-59-6-5-13-10-21-15s-15-9-25-13h183v-25h-500v25h122c-7 4-15 7-22 11s-14 9-20 14c-20 16-30 37-30 62s10 46 30 62c7 6 14 11 21 15s15 8 22 11h-123v25h500v-25z m-347-70c0-10 0-17 1-21s3-11 6-21l9-16c3-6 7-11 11-17 13-17 28-27 45-30h22c7 2 12 4 17 8s9 8 12 12 6 11 8 19 2 18 2 31c0 7 0 14-2 20s-3 13-5 19c-2 7-5 13-8 19s-8 12-13 17c-15 20-35 30-60 30-15-2-27-8-34-17s-11-27-11-53z m347 670h-500v25h500v-25z m0-400h-500v25h500v-25z m0 200h-500v25h500v-25z" horiz-adv-x="484.4" />
<glyph glyph-name="whole-G" unicode="&#xe851;" d="m492 225h-111c-3-19-12-35-26-47-17-15-39-27-66-35-13-4-26-7-39-8s-25-3-36-3c-23 0-48 3-74 10s-48 17-68 33c-17 14-27 30-30 50h-50v25h51c4 22 13 38 29 49 20 16 41 27 65 33 10 4 22 6 35 8s25 2 36 2c34 0 58-3 74-10 26-5 49-16 69-33 17-12 27-29 30-49h111v-25z m0 400h-500v25h500v-25z m0 200h-500v25h500v-25z m0-800h-500v25h500v-25z m0 400h-500v25h500v-25z m-345-200c2-4 5-10 9-20s10-17 16-25c8-11 17-18 26-21s20-6 31-6c9 2 18 4 24 7s12 8 15 12 6 11 8 18 2 17 2 30v5h-131z m-2 25l129 0-3 9c-2 7-5 13-8 19s-8 12-13 17c-7 10-15 17-25 21s-20 5-33 5c-15-2-27-7-35-15s-12-25-12-51v-5z" horiz-adv-x="484.4" />
<glyph glyph-name="whole-A" unicode="&#xe852;" d="m492 425h-185c8-3 16-7 23-11s14-9 21-15c21-14 31-35 31-62 0-23-9-43-27-59-6-5-13-10-21-15s-15-9-25-13h183v-25h-500v25h122c-7 4-15 7-22 11s-14 9-20 14c-20 16-30 37-30 62s10 46 30 62c7 6 14 10 21 15s15 8 22 11h-123v25h500v-25z m-347-70c0-10 0-17 1-21s3-11 6-21l9-16c3-6 7-12 11-17 13-17 28-27 45-30h22c13 2 23 8 30 17 6 9 9 27 9 53 0 7 0 13-2 20s-3 13-5 19c-2 7-5 13-8 19s-8 12-13 17c-15 20-35 30-60 30-15-2-27-7-34-17s-11-27-11-53z m347 470h-500v25h500v-25z m0-200h-500v25h500v-25z m0-600h-500v25h500v-25z" horiz-adv-x="484.4" />
<glyph glyph-name="whole-B" unicode="&#xe853;" d="m492 425l-111 0c-3-19-12-35-26-47-17-15-39-27-66-35-13-4-26-6-39-8s-25-3-36-3c-23 0-48 4-74 10s-48 17-68 33c-17 14-27 30-30 50h-50v25h51c4 22 13 38 29 49 20 16 41 27 65 33 10 3 22 6 35 8s25 2 36 2c34 0 58-3 74-10 26-5 49-16 69-33 17-12 27-29 30-49h111v-25z m0-200h-500v25h500v-25z m0 400h-500v25h500v-25z m0-600h-500v25h500v-25z m0 800h-500v25h500v-25z m-345-400c2-4 5-10 9-20s10-18 16-25c8-10 17-18 27-21s20-6 31-6c19 2 32 8 38 16 3 5 6 11 8 19s2 19 2 32v5h-131z m-2 25l129 0-3 9c-2 7-5 13-8 19s-8 12-13 17c-7 10-15 17-25 21s-20 5-33 5c-15-2-27-7-35-15s-12-25-12-51v-5z" horiz-adv-x="484.4" />
<glyph glyph-name="whole-D" unicode="&#xe854;" d="m492 625l-111 0c-3-19-12-35-26-47-17-15-39-27-66-35-13-4-26-7-39-8s-25-3-36-3c-23 0-48 3-74 10s-48 17-68 33c-17 13-27 30-30 50h-50v25h51c4 22 13 38 29 49 20 16 41 27 65 33 10 4 22 6 35 8s25 2 36 2c34 0 58-3 74-10 26-5 49-16 69-33 17-13 27-29 30-49h111v-25z m0-400h-500v25h500v-25z m0 600h-500v25h500v-25z m0-800h-500v25h500v-25z m0 400h-500v25h500v-25z m-345 200c2-4 5-11 9-20s10-17 16-25c8-10 17-17 27-21s20-6 31-6c17 2 29 8 37 18 3 5 6 11 8 18s3 18 3 31v5h-131z m-2 25l129 0-3 9c-2 7-5 13-8 19s-8 12-13 17c-7 10-15 17-25 21s-20 5-33 5c-15-2-27-7-35-15s-12-25-12-51v-5z" horiz-adv-x="484.4" />
<glyph glyph-name="whole-E" unicode="&#xe855;" d="m492 825h-185c8-3 16-7 23-11s14-10 21-15c21-14 31-35 31-62 0-23-9-43-27-59-6-5-13-10-21-15s-15-9-25-13h183v-25h-500v25h122c-7 4-15 7-22 11s-14 9-20 14c-20 16-30 37-30 62s10 46 30 62c7 5 14 10 21 15s15 8 22 11h-123v25h500v-25z m-347-70c0-10 0-17 1-21s3-12 6-21c3-5 6-11 9-16s7-11 11-17c13-17 28-27 45-30h22c7 2 13 4 18 7s9 8 12 12c6 9 9 26 9 51 0 7 0 14-2 20s-3 13-5 19c-2 7-5 13-8 19s-8 12-13 17c-15 20-35 30-60 30-15-2-27-7-34-17s-11-27-11-53z m347-530h-500v25h500v-25z m0 200h-500v25h500v-25z m0-400h-500v25h500v-25z" horiz-adv-x="484.4" />
<glyph glyph-name="whole-F" unicode="&#xe856;" d="m492 825l-111 0c-3-19-12-35-26-47-17-15-39-27-66-35-13-4-26-7-39-8s-25-3-36-3c-23 0-48 4-74 10s-48 17-68 33c-17 14-27 30-30 50h-50v25h51c4 22 13 38 29 49 20 16 41 27 65 33 10 4 22 6 35 8s25 2 36 2c34 0 58-3 74-10 26-5 49-16 69-33 17-12 27-29 30-49h111v-25z m0-200h-500v25h500v-25z m0-400h-500v25h500v-25z m0-200h-500v25h500v-25z m0 400h-500v25h500v-25z m-345 400c2-4 5-10 9-20s10-17 16-25c8-11 17-18 27-21s21-6 32-6c17 2 29 8 35 16 3 5 6 11 9 19s3 19 3 32v5h-131z m-2 25l129 0-3 9c-2 7-5 13-8 19s-8 12-13 17c-7 10-15 17-25 21s-20 6-33 6c-15-2-27-7-35-15s-12-26-12-52v-5z" horiz-adv-x="484.4" />
<glyph glyph-name="whole-G-high" unicode="&#xe857;" d="m42 937c0 26 10 46 30 62 20 16 41 27 65 33 10 3 22 6 35 8s25 2 36 2c34 0 58-3 74-10 26-5 49-16 69-33 21-15 31-35 31-62 0-23-9-43-27-59-6-5-13-10-21-15s-15-9-25-13h183v-25h-500v25h122c-7 4-15 7-22 11s-14 9-20 14c-20 16-30 37-30 62z m103 18c0-10 0-17 1-21s3-12 6-21l9-16c3-6 7-11 11-17 13-17 28-27 45-30h22c14 2 24 8 30 16 6 9 9 27 9 54 0 7 0 13-2 20s-3 13-5 19c-2 7-5 13-8 19s-8 12-13 17c-7 10-15 17-25 21s-20 6-33 6c-15-2-27-7-35-15s-12-26-12-52z m347-730h-500v25h500v-25z m0 400h-500v25h500v-25z m0-200h-500v25h500v-25z m0-400h-500v25h500v-25z" horiz-adv-x="484.4" />
<glyph glyph-name="whole-A-high" unicode="&#xe858;" d="m492 1025h-111c-3-19-12-35-26-47-17-15-39-27-66-35-13-4-26-6-39-8s-25-3-36-3c-23 0-48 3-74 10s-48 17-68 33c-16 13-26 30-30 50h-100v25h101c4 22 13 38 29 49 19 16 41 27 65 33 10 4 22 6 35 8s25 2 36 2c34 0 59-3 74-10 26-5 49-16 69-33 17-13 27-30 30-49h111v-25z m0-200h-500v25h500v-25z m0-200h-500v25h500v-25z m0-600h-500v25h500v-25z m0 200h-500v25h500v-25z m0 200h-500v25h500v-25z m-345 600c2-4 5-10 9-20s10-17 16-25c16-20 36-31 59-31 18 2 31 8 38 17 6 9 9 27 9 54v5h-131z m-2 25h129l-3 9c-2 7-5 13-8 19s-8 12-13 17c-7 10-15 17-25 21s-20 6-33 6c-15-2-27-7-35-15s-12-26-12-52v-5z" horiz-adv-x="484.4" />
<glyph glyph-name="key-signature-GM-1" unicode="&#xe859;" d="m242 825h-104v-17l38 7v-57l-38-6v-84h-25v80l-54-10v-88h183v-25h-250v25h42v83l-42-7v57l42 7v35h-42v25h42v19l-42-7v55l42 7v85h25v-80l54 9v109h25v-105l38 7v-54l-38-7v-38h104v-25z m0-600h-250v25h250v-25z m0-200h-250v25h250v-25z m0 400h-250v25h250v-25z m-129 425v33l-54-9v-24h54z m0-25h-54v-30l54 9v21z" horiz-adv-x="234.4" />
<glyph glyph-name="key-signature-DM" unicode="&#xe85a;" d="m492 625h-133v-30l-38-7v-80l38 7v-57l-38-6v-2h171v-25h-171v-57h-25v57h-54v-93h-25v93h-225v25h183v33l42 7v79l-42-7v55l42 7v1h-225v25h42v83l-42-7v57l42 7v35h-42v25h42v19l-42-7v55l42 7v85h25v-80l54 9v109h25v-105l38 7v-54l-38-7v-38h354v-25h-354v-17l38 7v-57l-38-6v-84h-25v80l-54-10v-88h158v59h25v-59h54v97h25v-97h171v-25z m0-400h-500v25h500v-25z m0-200h-500v25h500v-25z m-196 558l-54-9v-79l54 9v79z m-183 267v33l-54-9v-24h54z m0-25h-54v-30l54 9v21z" horiz-adv-x="484.4" />
<glyph glyph-name="key-signature-AM" unicode="&#xe85b;" d="m742 625h-383v-30l-38-7v-80l38 7v-57l-38-6v-2h421v-25h-421v-57h-25v57h-54v-93h-25v93h-225v25h183v33l42 7v79l-42-7v55l42 7v1h-225v25h42v83l-42-7v57l42 7v35h-42v25h42v19l-42-7v55l42 7v85h25v-80l54 9v109h25v-105l38 7v-54l-38-7v-38h222v36l42 7v79l-42-7v55l42 7v85h25v-80l54 9v109h25v-105l38 7v-54l-38-7v-80l38 7v-57l-38-6v-5h236v-25h-236v-54h-25v54h-54v-90h-25v90h-264v-17l38 7v-57l-38-6v-84h-25v80l-54-10v-88h158v59h25v-59h54v97h25v-97h421v-25z m0-400h-750v25h750v-25z m0-200h-750v25h750v-25z m-446 558l-54-9v-79l54 9v79z m185 403l-54-9v-79l54 9v79z m-368-136v33l-54-9v-24h54z m0-25h-54v-30l54 9v21z m368 25v1l-6-1h6z" horiz-adv-x="734.4" />
<glyph glyph-name="key-signature-EM" unicode="&#xe85c;" d="m742 625h-55v-18l38 7v-57l-38-6v-84h-25v80l-54-10v-87h134v-25h-421v-57h-25v57h-54v-93h-25v93h-225v25h183v33l42 7v79l-42-7v55l42 7v1h-225v25h42v83l-42-7v57l42 7v35h-42v25h42v19l-42-7v55l42 7v85h25v-80l54 9v109h25v-105l38 7v-54l-38-7v-38h222v36l42 7v79l-42-7v55l42 7v85h25v-80l54 9v109h25v-105l38 7v-54l-38-7v-80l38 7v-57l-38-6v-5h236v-25h-55v-84l38 7v-54l-38-7v-37h55v-25z m-604 183l38 7v-57l-38-6v-84h-25v80l-54-10v-88h158v59h25v-59h54v97h25v-97h262v18l-42-7v55l42 7v85h25v-80l54 9v88h-156v-54h-25v54h-54v-90h-25v90h-264v-17z m445-183h-224v-30l-38-7v-80l38 7v-57l-38-6v-2h262v82l-42-7v57l42 7v36z m159-400h-750v25h750v-25z m0-200h-750v25h750v-25z m-446 558l-54-9v-79l54 9v79z m185 403l-54-9v-79l54 9v79z m-368-136v33l-54-9v-24h54z m549-200v32l-54-9v-23h54z m0-25h-54v-31l54 9v22z m-549 200h-54v-30l54 9v21z m368 25v1l-6-1h6z" horiz-adv-x="734.4" />
<glyph glyph-name="key-signature-BM" unicode="&#xe85d;" d="m992 425h-96v-30l-38-7v-80l38 7v-57l-38-6v-2h134v-25h-134v-57h-24v57h-54v-93h-24v93h-764v25h722v33l42 7v79l-42-7v55l42 7v1h-439v-57h-24v57h-54v-93h-24v93h-223v25h181v33l42 7v79l-42-7v55l42 7v1h-223v25h42v83l-42-7v57l42 7v35h-42v25h42v19l-42-7v55l42 7v85h24v-80l54 9v109h24v-105l38 7v-54l-38-7v-38h220v36l42 7v79l-42-7v55l42 7v85h24v-80l54 9v109h24v-105l38 7v-54l-38-7v-80l38 7v-57l-38-6v-5h492v-25h-313v-84l38 7v-54l-38-7v-37h313v-25h-313v-18l38 7v-57l-38-6v-84h-24v80l-54-10v-87h155v59h24v-59h54v97h24v-97h134v-25z m-856 383l38 7v-57l-38-6v-84h-24v80l-54-10v-88h157v59h24v-59h54v97h24v-97h260v18l-42-7v55l42 7v85h24v-80l54 9v88h-155v-54h-24v54h-54v-90h-24v90h-262v-17z m441-183h-222v-30l-38-7v-80l38 7v-57l-38-6v-2h260v82l-42-7v57l42 7v36z m415-600h-1000v25h1000v-25z m-699 558l-54-9v-79l54 9v79z m541-200l-54-9v-79l54 9v79z m-358 603l-54-9v-79l54 9v79z m-364-136v33l-54-9v-24h54z m543-200v32l-54-9v-23h54z m0-25h-54v-31l54 9v22z m-543 200h-54v-30l54 9v21z m364 25v1l-6-1h6z" horiz-adv-x="984.4" />
<glyph glyph-name="key-signature-FshM" unicode="&#xe85e;" d="m1241 425h-345v-30l-38-7v-80l38 7v-57l-38-6v-2h383v-25h-383v-57h-24v57h-54v-93h-24v93h-764v25h722v33l42 7v79l-42-7v55l42 7v1h-439v-57h-24v57h-54v-93h-24v93h-223v25h181v33l42 7v79l-42-7v55l42 7v1h-223v25h42v83l-42-7v57l42 7v35h-42v25h42v19l-42-7v55l42 7v85h24v-80l54 9v109h24v-105l38 7v-54l-38-7v-38h220v36l42 7v79l-42-7v55l42 7v85h24v-80l54 9v109h24v-105l38 7v-54l-38-7v-80l38 7v-57l-38-6v-5h432v58h24v-58h54v96h24v-96h207v-25h-169v-31l-38-7v-80l38 7v-57l-38-6v-1h207v-25h-207v-58h-24v58h-54v-94h-24v94h-253v-18l38 7v-57l-38-6v-84h-24v80l-54-10v-87h155v59h24v-59h54v97h24v-97h383v-25z m-1105 383l38 7v-57l-38-6v-84h-24v80l-54-10v-88h157v59h24v-59h54v97h24v-97h260v18l-42-7v55l42 7v85h24v-80l54 9v88h-155v-54h-24v54h-54v-90h-24v90h-262v-17z m441-183h-222v-30l-38-7v-80l38 7v-57l-38-6v-2h260v82l-42-7v57l42 7v36z m355 143l-42-7v55l42 7v2h-253v-84l38 7v-54l-38-7v-37h211v32l42 7v79z m310-743h-1250v25h1250v-25z m-949 558l-54-9v-79l54 9v79z m541-200l-54-9v-79l54 9v79z m-358 603l-54-9v-79l54 9v79z m534-204l-54-9v-79l54 9v79z m-898 68v33l-54-9v-24h54z m543-200v32l-54-9v-23h54z m0-25h-54v-31l54 9v22z m-543 200h-54v-30l54 9v21z m364 25v1l-6-1h6z" horiz-adv-x="1234.4" />
<glyph glyph-name="key-signature-CshM" unicode="&#xe85f;" d="m1492 425h-275v-20l38 7v-57l-38-6v-84h-24v80l-54-10v-85h353v-25h-634v-57h-24v57h-54v-93h-24v93h-764v25h722v33l42 7v79l-42-7v55l42 7v1h-439v-57h-24v57h-54v-93h-24v93h-223v25h181v33l42 7v79l-42-7v55l42 7v1h-223v25h42v83l-42-7v57l42 7v35h-42v25h42v19l-42-7v55l42 7v85h24v-80l54 9v109h24v-105l38 7v-54l-38-7v-38h220v36l42 7v79l-42-7v55l42 7v85h24v-80l54 9v109h24v-105l38 7v-54l-38-7v-80l38 7v-57l-38-6v-5h432v58h24v-58h54v96h24v-96h458v-25h-420v-31l-38-7v-80l38 7v-57l-38-6v-1h458v-25h-275v-86l38 7v-54l-38-7v-35h275v-25z m-1356 383l38 7v-57l-38-6v-84h-24v80l-54-10v-88h157v59h24v-59h54v97h24v-97h260v18l-42-7v55l42 7v85h24v-80l54 9v88h-155v-54h-24v54h-54v-90h-24v90h-262v-17z m543-201l38 7v-57l-38-6v-84h-24v80l-54-10v-87h155v59h24v-59h54v97h24v-97h257v16l-42-7v55l42 7v85h24v-80l54 9v90h-159v-58h-24v58h-54v-94h-24v94h-253v-18z m-102 18h-222v-30l-38-7v-80l38 7v-57l-38-6v-2h260v82l-42-7v57l42 7v36z m538-200h-219v-30l-38-7v-80l38 7v-57l-38-6v-2h257v80l-42-7v57l42 7v38z m-183 343l-42-7v55l42 7v2h-253v-84l38 7v-54l-38-7v-37h211v32l42 7v79z m560-743h-1500v25h1500v-25z m-1199 558l-54-9v-79l54 9v79z m183 403l-54-9v-79l54 9v79z m534-204l-54-9v-79l54 9v79z m-176-399l-54-9v-79l54 9v79z m-722 467v33l-54-9v-24h54z m1081-425h-54v-33l54 9v24z m-538 225v32l-54-9v-23h54z m0-25h-54v-31l54 9v22z m-543 200h-54v-30l54 9v21z m1081-375v30l-54-9v-21h54z m-717 400v1l-6-1h6z" horiz-adv-x="1484.4" />
<glyph glyph-name="key-signature-FM" unicode="&#xe860;" d="m492 625l-477 0v-141c21 15 44 22 68 22 17 0 32-4 45-14s20-22 20-38v-4h344v-25h-356l-3-3c-4-6-10-12-17-18l-26-20-52-38c-9-6-17-12-25-19s-14-13-20-19v117h-1v25h1v175h-1v25h1v78h22v-78h477v-25z m0-400h-500v25h500v-25z m0-200h-500v25h500v-25z m0 800h-500v25h500v-25z m-477-475l30 30 15 14c4 4 8 8 10 12 3 3 5 6 7 9l6 10h-68v-75z m0 100l75 0v2c0 6-1 10-3 14s-4 7-7 10c-2 2-5 4-9 6s-7 2-13 2c-18 0-33-10-43-30v-4z" horiz-adv-x="484.4" />
<glyph glyph-name="key-signature-BbM" unicode="&#xe861;" d="m492 625h-477v-141c21 15 44 22 68 22 17 0 32-4 45-14s20-22 20-38v-4h344v-25h-356l-3-3c-4-6-10-12-17-18l-26-20-52-38c-9-6-17-12-25-19s-14-13-20-19v117h-1v25h1v175h-1v25h1v78h22v-78h161v175h-184v25h184v200h22v-200h294v-25h-204c12-3 22-9 31-17s12-19 12-32c0-11-5-22-15-32-4-6-10-12-17-18s-16-13-26-20l-52-38c-9-6-17-12-24-18h295v-25z m0-400h-500v25h500v-25z m0-200h-500v25h500v-25z m-294 647l30 30 15 14c4 4 8 8 10 12 13 16 20 31 20 46 0 6-1 10-3 14s-4 7-7 10c-2 2-5 4-9 6s-8 2-13 2c-18 0-33-10-43-30v-104z m-183-322l30 30 15 14c4 4 8 8 10 12 3 3 5 6 7 9l6 10h-68v-75z m0 100l75 0v2c0 6-1 10-3 14s-4 7-7 10c-2 2-5 4-9 6s-7 2-13 2c-18 0-33-10-43-30v-4z m183 356c13 9 27 15 41 19h-41v-19z" horiz-adv-x="484.4" />
<glyph glyph-name="key-signature-EbM" unicode="&#xe862;" d="m742 425l-274 0c14-3 25-9 34-17s14-19 14-33c0-11-5-22-15-32-4-6-9-12-17-18s-16-12-26-20l-52-38-12-9c-4-2-7-5-11-8h359v-25h-750v25h369v175h-225l-3-3c-4-6-10-12-17-18l-26-20-52-38c-9-6-17-12-25-19s-14-13-20-19v117h-1v25h1v175h-1v25h1v78h22v-78h161v175h-184v25h184v200h22v-200h544v-25h-454c12-3 22-9 31-17s12-19 12-32c0-11-5-22-15-32-4-6-10-12-17-18s-16-13-26-20l-52-38c-9-6-17-12-24-18h545v-25h-359v-175h359v-25z m-727 59c21 15 44 22 68 22 17 0 32-4 45-14s20-22 20-38v-4h213v175h-346v-141z m727-459h-750v25h750v-25z m-544 647l30 30 15 14c4 4 8 8 10 12 13 16 20 31 20 46 0 6-1 10-3 14s-4 7-7 10c-2 2-5 4-9 6s-8 2-13 2c-18 0-33-10-43-30v-104z m185-401l30 30 15 14c4 4 7 8 10 12 13 15 20 31 20 46 0 6-1 10-3 14s-4 7-7 10c-2 2-5 4-9 6s-7 2-13 2c-19 0-33-10-43-30v-104z m-368 79l30 30 15 14c4 4 8 8 10 12 3 3 5 6 7 9l6 10h-68v-75z m0 100l75 0v2c0 6-1 10-3 14s-4 7-7 10c-2 2-5 4-9 6s-7 2-13 2c-18 0-33-10-43-30v-4z m368-45c6 5 13 9 20 13s15 6 23 7h-43v-20z m-185 401c13 9 27 15 41 19h-41v-19z" horiz-adv-x="734.4" />
<glyph glyph-name="key-signature-AbM" unicode="&#xe863;" d="m742 425l-274 0c14-3 25-9 34-17s14-19 14-33c0-11-5-22-15-32-4-6-9-12-17-18s-16-12-26-20l-52-38-12-9c-4-2-7-5-11-8h359v-25h-750v25h369v175h-225l-3-3c-4-6-10-12-17-18l-26-20-52-38c-9-6-17-12-25-19s-14-13-20-19v117h-1v25h1v175h-1v25h1v78h22v-78h161v175h-184v25h184v200h22v-200h336v80h22v-80h186v-25h-186v-139c21 15 44 22 68 22 17 0 32-4 45-14s20-22 20-38c0-3 0-5-1-6h54v-25h-67l-1-1c-4-6-10-12-17-18s-16-12-26-20l-52-38c-9-6-17-12-25-19s-14-13-20-19v115h-151v-175h359v-25z m-727 59c21 15 44 22 68 22 17 0 32-4 45-14s20-22 20-38v-4h213v175h-346v-141z m273 341c12-3 22-9 31-17s12-19 12-32c0-11-5-22-15-32-4-6-10-12-17-18s-16-13-26-20l-52-38c-9-6-17-12-24-18h337v175h-246z m454-800h-750v25h750v-25z m-359 246l30 30 15 14c4 4 7 8 10 12 13 15 20 31 20 46 0 6-1 10-3 14s-4 7-7 10c-2 2-5 4-9 6s-7 2-13 2c-19 0-33-10-43-30v-104z m-185 401l30 30 15 14c4 4 8 8 10 12 13 16 20 31 20 46 0 6-1 10-3 14s-4 7-7 10c-2 2-5 4-9 6s-8 2-13 2c-18 0-33-10-43-30v-104z m-183-322l30 30 15 14c4 4 8 8 10 12 3 3 5 6 7 9l6 10h-68v-75z m541 202l30 30c6 6 10 10 15 14s8 8 10 12c6 6 9 11 12 17h-67v-73z m0 98l75 0v4c0 5-1 10-3 14s-4 7-7 10c-2 2-5 4-9 6s-7 2-13 2c-18 0-33-10-43-30v-6z m-541-200l75 0v2c0 6-1 10-3 14s-4 7-7 10c-2 2-5 4-9 6s-7 2-13 2c-18 0-33-10-43-30v-4z m368-45c6 5 13 9 20 13s15 6 23 7h-43v-20z m-185 401c13 9 27 15 41 19h-41v-19z" horiz-adv-x="734.4" />
<glyph glyph-name="key-signature-DbM" unicode="&#xe864;" d="m992 425l-264 0v-138c21 15 44 22 68 22 17 0 32-5 45-14s20-22 20-38c0-4 0-6-1-7h132v-25h-146c-4-6-9-12-17-18s-16-12-26-20l-52-38c-9-6-17-12-25-19l-20-19v114h-714v25h369v175h-225l-3-3c-4-6-10-12-17-18l-26-20-52-38c-9-6-17-12-25-19s-14-13-20-19v117h-1v25h1v175h-1v25h1v78h22v-78h161v175h-184v25h184v200h22v-200h336v80h22v-80h436v-25h-436v-139c21 15 44 22 68 22 17 0 32-4 45-14s20-22 20-38c0-3 0-5-1-6h304v-25h-317l-1-1c-4-6-10-12-17-18s-16-12-26-20l-52-38c-9-6-17-12-25-19s-14-13-20-19v115h-151v-175h323v81h22v-81h264v-25z m-977 59c21 15 44 22 68 22 17 0 32-4 45-14s20-22 20-38v-4h213v175h-346v-141z m273 341c12-3 22-9 31-17s12-19 12-32c0-11-5-22-15-32-4-6-10-12-17-18s-16-13-26-20l-52-38c-9-6-17-12-24-18h337v175h-246z m180-400c14-3 25-9 34-17s14-19 14-33c0-11-5-22-15-32-4-6-9-12-17-18s-16-12-26-20l-52-38-12-9c-4-2-7-5-11-8h323v175h-238z m524-400h-1000v25h1000v-25z m-609 246l30 30 15 14c4 4 7 8 10 12 13 15 20 31 20 46 0 6-1 10-3 14s-4 7-7 10c-2 2-5 4-9 6s-7 2-13 2c-19 0-33-10-43-30v-104z m-185 401l30 30 15 14c4 4 8 8 10 12 13 16 20 31 20 46 0 6-1 10-3 14s-4 7-7 10c-2 2-5 4-9 6s-8 2-13 2c-18 0-33-10-43-30v-104z m-183-322l30 30 15 14c4 4 8 8 10 12 3 3 5 6 7 9l6 10h-68v-75z m541 202l30 30c6 6 10 10 15 14s8 8 10 12c6 6 9 11 12 17h-67v-73z m172-399l30 30c6 6 10 10 15 14s8 8 10 12c2 3 4 5 6 8s4 5 5 8h-66v-72z m0 97l75 0v5c0 6-1 10-3 14s-4 7-7 10c-3 2-6 4-9 6s-7 2-13 2c-19 0-33-10-43-30v-7z m-172 400l75 0v4c0 5-1 10-3 14s-4 7-7 10c-2 2-5 4-9 6s-7 2-13 2c-18 0-33-10-43-30v-6z m-541-200l75 0v2c0 6-1 10-3 14s-4 7-7 10c-2 2-5 4-9 6s-7 2-13 2c-18 0-33-10-43-30v-4z m368-45c6 5 13 9 20 13s15 6 23 7h-43v-20z m-185 401c13 9 27 15 41 19h-41v-19z" horiz-adv-x="984.4" />
<glyph glyph-name="key-signature-CbM" unicode="&#xe865;" d="m1492 225l-324 0c13-3 25-9 34-17 10-9 14-19 14-33 0-11-5-22-15-32-4-6-9-12-17-18s-16-12-26-20l-52-38-12-9-11-8h409v-25h-1500v25h1069v175h-215c-4-6-9-12-17-18s-16-12-26-20l-52-38c-9-6-17-12-25-19l-20-19v114h-714v25h369v175h-225l-3-3c-4-6-10-12-17-18l-26-20-52-38c-9-6-17-12-25-19s-14-13-20-19v117h-1v25h1v175h-1v25h1v78h22v-78h161v175h-184v25h184v200h22v-200h336v80h22v-80h936v-25h-578v-175h578v-25h-498c14-2 27-8 37-17s16-20 16-34c0-11-5-22-15-32-4-6-9-12-17-18s-16-12-26-20l-52-38c-3-2-7-5-11-7s-7-6-11-9h577v-25h-409v-175h409v-25z m-958 400h-151v-175h323v81h22v-81h164v175h-217l-1-1c-4-6-10-12-17-18s-16-12-26-20l-52-38c-9-6-17-12-25-19s-14-13-20-19v115z m-519-141c21 15 44 22 68 22 17 0 32-4 45-14s20-22 20-38v-4h213v175h-346v-141z m541 202c21 15 44 22 68 22 17 0 32-4 45-14s20-22 20-38c0-3 0-5-1-6h204v175h-336v-139z m172-399c21 15 44 22 68 22 17 0 32-5 45-14s20-22 20-38c0-4 0-6-1-7h201v175h-333v-138z m-440 538c12-3 22-9 31-17s12-19 12-32c0-11-5-22-15-32-4-6-10-12-17-18s-16-13-26-20l-52-38c-9-6-17-12-24-18h337v175h-246z m180-400c14-3 25-9 34-17s14-19 14-33c0-11-5-22-15-32-4-6-9-12-17-18s-16-12-26-20l-52-38-12-9c-4-2-7-5-11-8h323v175h-238z m-85-154l30 30 15 14c4 4 7 8 10 12 13 15 20 31 20 46 0 6-1 10-3 14s-4 7-7 10c-2 2-5 4-9 6s-7 2-13 2c-19 0-33-10-43-30v-104z m700-200l30 30c6 6 10 10 15 14s8 8 10 12c14 16 20 31 20 46 0 6-1 10-3 14s-4 7-7 10c-3 2-6 4-9 6s-7 2-13 2c-19 0-33-10-43-30v-104z m-885 601l30 30 15 14c4 4 8 8 10 12 13 16 20 31 20 46 0 6-1 10-3 14s-4 7-7 10c-2 2-5 4-9 6s-8 2-13 2c-18 0-33-10-43-30v-104z m716-202l30 30 15 14c4 4 8 8 10 12 14 16 20 31 20 46 0 5-1 10-3 14s-4 7-7 10c-3 2-5 4-9 6s-7 2-13 2c-18 0-33-10-43-30v-104z m-899-120l30 30 15 14c4 4 8 8 10 12 3 3 5 6 7 9l6 10h-68v-75z m541 202l30 30c6 6 10 10 15 14s8 8 10 12c6 6 9 11 12 17h-67v-73z m172-399l30 30c6 6 10 10 15 14s8 8 10 12c2 3 4 5 6 8s4 5 5 8h-66v-72z m0 97l75 0v5c0 6-1 10-3 14s-4 7-7 10c-3 2-6 4-9 6s-7 2-13 2c-19 0-33-10-43-30v-7z m-172 400l75 0v4c0 5-1 10-3 14s-4 7-7 10c-2 2-5 4-9 6s-7 2-13 2c-18 0-33-10-43-30v-6z m-541-200l75 0v2c0 6-1 10-3 14s-4 7-7 10c-2 2-5 4-9 6s-7 2-13 2c-18 0-33-10-43-30v-4z m899 154c15 12 31 19 47 21h-47v-21z m169-399c6 5 13 9 20 13s15 6 23 7h-43v-20z m-700 200c6 5 13 9 20 13s15 6 23 7h-43v-20z m-185 401c13 9 27 15 41 19h-41v-19z" horiz-adv-x="1484.4" />
<glyph glyph-name="F-clef" unicode="&#xe866;" d="m0 225l-8 0v25h41l67 52c8 7 14 12 18 14s9 8 17 16l35 37c8 10 15 19 24 28s16 18 23 28h-225v25h242c1 1 2 2 2 3s2 2 2 3l17 32c5 10 11 23 17 40l10 48c2 8 3 16 4 23s1 14 1 21l-1 5h-123c-1-4-2-7-3-8-8-13-16-22-24-27-12-7-25-10-37-10-23 0-43 8-59 24-6 5-12 12-16 21h-32v25h24c0 1-1 6-1 16 0 22 5 43 14 61s20 35 35 49 32 25 50 34 38 13 58 15h-180v25h500v-25h-284c26-4 51-13 74-29 25-16 45-37 61-63s25-53 28-83h121v-25h-119c0-62-18-119-55-170 0-1-1-1-1-2s-1-2-3-3h178v-25h-197c-2-2-3-4-4-6s-6-6-14-15l-21-24c-10-11-22-22-35-33s-26-22-41-33l-29-19c-11-7-25-16-43-26l-32-19h416v-25h-458l-32-19-4 17z m284 435c0 15-3 28-8 38-3 13-9 27-17 42s-16 27-24 36c-17 16-38 24-62 24-24 0-47-5-68-15-20-10-36-28-46-54l-3-9c0-5 2-9 6-12l14-4 13 2 20 3c8 0 16-1 23-4s13-8 19-15c12-11 18-25 18-42h115v10z m208-635h-500v25h500v-25z m-91 528c0 10 4 20 11 29 8 9 18 13 28 13 8 0 17-4 25-13 4-4 6-9 9-13s3-9 3-16c0-28-12-42-37-42-11 0-20 4-28 11s-11 18-11 31z m0 170c0 11 4 21 12 29s17 12 27 12c8 0 16-4 26-12 8-9 11-19 11-30s-3-21-11-30c-8-8-18-13-27-13-9 0-18 5-27 13-7 12-11 22-11 31z" horiz-adv-x="484.4" />
<glyph glyph-name="dot-A-low" unicode="&#xe867;" d="m242 250v-25h-250v25h250z m0 600v-25h-250v25h250z m0-400v-25h-250v25h250z m0 200v-25h-250v25h250z m0-600v-25h-250v25h250z m-77-323c0-15-5-28-15-39s-23-16-39-16-28 6-39 16-16 24-16 39c0 16 6 28 16 39s24 15 39 15 28-5 39-15 15-23 15-39z" horiz-adv-x="234.4" />
<glyph glyph-name="dot-B-low" unicode="&#xe868;" d="m242 250v-25h-250v25h250z m0 600v-25h-250v25h250z m0-400v-25h-250v25h250z m0 200v-25h-250v25h250z m0-600v-25h-250v25h250z m-77-295c0-15-5-28-15-39s-23-16-39-16-28 5-39 16-16 24-16 39 6 28 16 39 24 15 39 15 28-5 39-15 15-23 15-39z" horiz-adv-x="234.4" />
<glyph glyph-name="dot-C-low" unicode="&#xe869;" d="m242 250v-25h-250v25h250z m0 600v-25h-250v25h250z m0-400v-25h-250v25h250z m0 200v-25h-250v25h250z m0-600v-25h-250v25h250z m-77-123c0-15-5-28-15-39s-23-16-39-16-28 5-39 16-16 24-16 39 6 28 16 39 24 15 39 15 28-5 39-15 15-24 15-39z" horiz-adv-x="234.4" />
<glyph glyph-name="dot-D-low" unicode="&#xe86a;" d="m242 250v-25h-250v25h250z m0 600v-25h-250v25h250z m0-400v-25h-250v25h250z m0 200v-25h-250v25h250z m0-600v-25h-250v25h250z m-77-95c0-15-5-28-15-39s-23-16-39-16-28 6-39 16-16 24-16 39c0 16 6 28 16 39s24 15 39 15 28-5 39-15 15-23 15-39z" horiz-adv-x="234.4" />
<glyph glyph-name="dot-E-low" unicode="&#xe86b;" d="m242 250v-25h-250v25h250z m0 600v-25h-250v25h250z m0-400v-25h-250v25h250z m0 200v-25h-250v25h250z m0-600v-25h-250v25h250z m-77 72c0-15-5-28-15-39s-23-16-39-16-28 6-39 16-16 24-16 39c0 16 6 29 16 39s24 15 39 15 28-5 39-15 15-23 15-39z" horiz-adv-x="234.4" />
<glyph glyph-name="dot-F-low" unicode="&#xe86c;" d="m242 250v-25h-250v25h250z m0 600v-25h-250v25h250z m0-400v-25h-250v25h250z m0 200v-25h-250v25h250z m0-600v-25h-250v25h250z m-77 105c0-15-5-28-15-39s-23-16-39-16-28 5-39 16-16 24-16 39 6 28 16 39 24 15 39 15 28-5 39-15 15-23 15-39z" horiz-adv-x="234.4" />
<glyph glyph-name="dot-G" unicode="&#xe86d;" d="m242 250v-25h-250v25h250z m0 600v-25h-250v25h250z m0-400v-25h-250v25h250z m0 200v-25h-250v25h250z m0-600v-25h-250v25h250z m-77 272c0-15-5-28-15-39s-23-16-39-16-28 5-39 16-16 24-16 39 6 28 16 39 24 15 39 15 28-5 39-15 15-23 15-39z" horiz-adv-x="234.4" />
<glyph glyph-name="dot-A" unicode="&#xe86e;" d="m242 250v-25h-250v25h250z m0 600v-25h-250v25h250z m0-400v-25h-250v25h250z m0 200v-25h-250v25h250z m0-600v-25h-250v25h250z m-76 305c0-15-5-28-15-39s-23-16-39-16-28 6-39 16-16 24-16 39 6 28 16 39 24 15 39 15 28-5 39-15 15-23 15-39z" horiz-adv-x="234.4" />
<glyph glyph-name="dot-B" unicode="&#xe86f;" d="m242 250v-25h-250v25h250z m0 600v-25h-250v25h250z m0-400v-25h-250v25h250z m0 200v-25h-250v25h250z m0-600v-25h-250v25h250z m-77 472c0-15-5-28-15-39s-23-16-39-16-28 6-39 16-16 24-16 39 6 28 16 39 24 15 39 15 28-5 39-15 15-23 15-39z" horiz-adv-x="234.4" />
<glyph glyph-name="dot-C-1" unicode="&#xe870;" d="m242 250v-25h-250v25h250z m0 600v-25h-250v25h250z m0-400v-25h-250v25h250z m0 200v-25h-250v25h250z m0-600v-25h-250v25h250z m-76 505c0-15-5-28-15-39s-23-16-39-16-28 6-39 16-16 24-16 39 6 28 16 39 24 15 39 15 28-5 39-15 15-24 15-39z" horiz-adv-x="234.4" />
<glyph glyph-name="dot-D" unicode="&#xe871;" d="m242 250v-25h-250v25h250z m0 600v-25h-250v25h250z m0-400v-25h-250v25h250z m0 200v-25h-250v25h250z m0-600v-25h-250v25h250z m-77 672c0-15-5-28-15-39s-23-16-39-16-28 6-39 16-16 24-16 39 6 28 16 39 24 15 39 15 28-5 39-15 15-24 15-39z" horiz-adv-x="234.4" />
<glyph glyph-name="dot-E" unicode="&#xe872;" d="m242 250v-25h-250v25h250z m0 600v-25h-250v25h250z m0-400v-25h-250v25h250z m0 200v-25h-250v25h250z m0-600v-25h-250v25h250z m-78 705c0-15-5-28-15-39s-23-16-39-16-28 6-39 16-16 24-16 39 6 28 16 39 24 15 39 15 28-5 39-15 15-23 15-39z" horiz-adv-x="234.4" />
<glyph glyph-name="dot-F" unicode="&#xe873;" d="m242 250v-25h-250v25h250z m0 600v-25h-250v25h250z m0-400v-25h-250v25h250z m0 200v-25h-250v25h250z m0-600v-25h-250v25h250z m-77 872c0-15-5-28-15-39s-23-16-39-16-28 6-39 16-16 24-16 39 6 28 16 39 24 15 39 15 28-5 39-15 15-23 15-39z" horiz-adv-x="234.4" />
<glyph glyph-name="dot-G-high" unicode="&#xe874;" d="m242 250v-25h-250v25h250z m0 600v-25h-250v25h250z m0-400v-25h-250v25h250z m0 200v-25h-250v25h250z m0-600v-25h-250v25h250z m-76 905c0-15-5-28-15-39s-23-16-39-16-28 6-39 16-16 24-16 39c0 16 6 29 16 39s24 15 39 15 28-5 39-15 15-23 15-39z" horiz-adv-x="234.4" />
<glyph glyph-name="dot-A-high" unicode="&#xe875;" d="m242 250v-25h-250v25h250z m0 600v-25h-250v25h250z m0-400v-25h-250v25h250z m0 200v-25h-250v25h250z m0-600v-25h-250v25h250z m-77 1072c0-15-5-28-15-39s-23-16-39-16-28 6-39 16-16 24-16 39c0 16 6 29 16 39s24 15 39 15 28-5 39-15 15-23 15-39z" horiz-adv-x="234.4" />
<glyph glyph-name="dot-C" unicode="&#xe876;" d="m242 250v-25h-250v25h250z m0 600v-25h-250v25h250z m0-400v-25h-250v25h250z m0 200v-25h-250v25h250z m0-600v-25h-250v25h250z m-77 472c0-15-5-28-15-39s-23-16-39-16-28 6-39 16-16 24-16 39 6 28 16 39 24 15 39 15 28-5 39-15 15-23 15-39z" horiz-adv-x="234.4" />
<glyph glyph-name="2-quaver-A-low" unicode="&#xe877;" d="m742 250l0-25h-135v-175h135v-25h-135v-175h74v-25h-74v-162c0-2 0-4 0-6s-1-5-1-7h75v-25h-83c-1-3-3-6-5-9s-4-5-6-9c-13-18-31-32-53-42s-43-15-64-15c-18 0-34 6-49 16s-22 25-22 43c0 10 1 16 1 16h-75v25h85c2 3 3 5 5 8s4 4 6 7c13 17 31 32 54 45 12 6 23 9 33 12s20 3 29 3c20 0 38-6 53-17v117h-265v25h265v175h-390v-175h74v-25h-74v-162c0-2 0-4 0-6s-1-5-1-7h75v-25h-83c-1-3-3-6-5-9s-4-5-6-9c-13-18-31-32-53-42s-43-15-64-15c-19 0-35 6-50 16-14 11-21 25-21 43v16h-73v25h84c2 3 3 5 5 8l5 7c7 8 15 15 24 23s20 15 31 22c11 6 22 9 33 12s20 3 29 3c20 0 38-6 53-17v117h-264v25h264v175h-191v25h191v175h-191v25h750z m-542-200h390v108h-390v-108z m542 400v-25h-750v25h750z m0 400v-25h-750v25h750z m0-200v-25h-750v25h750z" horiz-adv-x="734.4" />
<glyph glyph-name="2-quaver-B-low" unicode="&#xe878;" d="m742 250l0-25h-135v-175h135v-25h-135v-175h74v-25h-74v-62c0-20-6-38-20-56-13-18-31-32-53-42s-43-15-64-15c-18 0-34 6-49 16s-22 25-22 43c0 21 8 39 22 56 13 17 31 32 54 45 10 5 18 9 26 11s16 3 23 4h-199v25h265v175h-390v-175h74v-25h-74v-62c0-20-6-38-20-56-13-18-31-32-53-42s-43-15-64-15c-19 0-35 6-50 16-14 11-21 25-21 43 0 20 7 38 21 56 7 7 15 15 24 23s20 15 31 22c10 5 18 9 26 11s16 3 23 4h-198v25h264v175h-191v25h191v175h-191v25h191v175h-191v25h750v-25h-135v-175h135z m-152-25h-390v-175h390v175z m-390 25h390v109h-390v-109z m542 400v-25h-750v25h750z m0 200v-25h-750v25h750z m-152-1025l-43 0c16-1 30-7 43-17v17z m-407 0h-43c14-1 29-6 43-17v17z" horiz-adv-x="734.4" />
<glyph glyph-name="2-quaver-C-low" unicode="&#xe879;" d="m742 250l0-25h-135v-175h135v-25h-135v-162c0-2 0-4 0-6s-1-5-1-7h75v-25h-83c-1-3-3-6-5-9s-4-5-6-9c-13-18-31-32-53-42s-43-15-64-15c-18 0-34 6-49 16s-22 25-22 43c0 10 1 15 1 16h-75v25h85c2 3 3 5 5 8s4 4 6 7c13 17 31 32 54 45 12 6 23 9 33 12s20 3 29 3c20 0 38-6 53-17v117h-390v-162c0-2 0-4 0-6s-1-5-1-7h75v-25h-83c-1-3-3-6-5-9s-4-5-6-9c-13-18-31-32-53-42s-43-15-64-15c-19 0-35 6-50 16-14 11-21 25-21 43v16h-73v25h84c2 3 3 5 5 8l5 7c7 8 15 15 24 23s20 15 31 22c11 6 22 9 33 12s20 3 29 3c20 0 38-6 53-17v117h-191v25h191v175h-191v25h191v175h-191v25h750v-25h-135v-175h135z m-152-25h-390v-175h390v175z m-390 25h390v109h-390v-109z m542 400v-25h-750v25h750z m0 200v-25h-750v25h750z" horiz-adv-x="734.4" />
<glyph glyph-name="2-quaver-D-low" unicode="&#xe87a;" d="m742 650l0-25h-135v-175h135v-25h-135v-175h135v-25h-135v-175h135v-25h-135v-62c0-20-6-39-20-56-13-18-31-32-53-42s-43-15-64-15c-18 0-34 5-49 16s-22 25-22 43c0 21 8 40 22 56 7 9 15 18 24 26s19 16 30 22c10 6 20 9 28 10s17 2 25 2h-328v-62c0-20-6-39-20-56-13-18-31-32-53-42s-43-15-64-15c-19 0-35 5-50 16-14 11-21 25-21 43 0 20 7 38 21 56 7 7 15 15 24 24s20 17 31 24c10 6 18 9 27 10s16 2 24 2h-127v25h191v175h-191v25h191v175h-191v25h191v175h-191v25h750z m-152-425h-390v-175h390v175z m0 200h-390v-175h390v175z m-390 25h390v107h-390v-107z m542 400v-25h-750v25h750z m-152-825l-41 0c8 0 14-1 21-3s13-5 20-11v14z m-407 0l-41 0c8 0 15-1 21-3s13-5 20-11v14z" horiz-adv-x="734.4" />
<glyph glyph-name="2-quaver-E-low" unicode="&#xe87b;" d="m742 250l0-25h-135v-162c0-2 0-5 0-7s-1-4-1-6h136v-25h-145c-2-3-4-5-5-7s-3-5-5-8c-13-18-31-32-53-43s-43-17-64-17c-18 0-34 6-49 18s-22 26-22 44c0 8 1 12 2 13h-209c-2-3-4-5-6-7s-4-5-6-8c-13-18-31-32-53-43s-43-17-64-17c-19 0-35 5-50 16-7 5-13 12-16 20s-5 17-5 26v38h11c2 3 3 5 5 8s3 5 5 7c7 8 15 15 24 23s20 15 31 22c11 6 22 9 33 12s20 3 29 3c20 0 38-5 53-17v117h-191v25h191v175h-191v25h191v175h-191v25h750v-25h-135v-175h135v-25h-135v-175h135z m-152 175h-390v-175h390v175z m-391-375h211c2 3 3 5 5 8s4 5 6 7c13 17 31 32 54 45 12 6 23 9 33 12s20 3 29 3c20 0 38-5 53-17v117h-390v-162c0-2 0-5 0-7s-1-4-1-6z m1 400h390v107h-390v-107z m542 400v-25h-750v25h750z" horiz-adv-x="734.4" />
<glyph glyph-name="2-quaver-F-low" unicode="&#xe87c;" d="m742 250l0-25h-134v-62c0-16-4-31-12-44s-18-25-31-35-26-18-42-24-31-9-46-10h265v-25h-750v25h63c-13 1-27 6-41 16-14 11-21 25-21 43 0 20 7 38 21 56 7 8 15 15 24 23s20 15 31 22c19 8 36 13 52 15h-129v25h192v175h-192v25h192v175h-192v25h192v175h-192v25h750v-25h-134v-175h134v-25h-134v-175h134v-25h-134v-175h134z m-151 175h-390v-175h390v175z m0 200h-390v-175h390v175z m-521-575l395 0c-17 2-32 7-45 18s-20 24-20 41c0 21 8 40 22 56 13 17 31 32 54 45 20 8 38 13 52 15h-327v-62c0-16-4-31-12-44s-18-25-31-35-27-18-42-24-31-9-46-10z m131 600h390v108h-390v-108z m390-425h-45c14-2 29-7 45-17v17z m-407 0h-45c14-2 29-7 45-17v17z" horiz-adv-x="734.4" />
<glyph glyph-name="2-quaver-G" unicode="&#xe87d;" d="m742 450l0-25h-135v-162c0-2 0-5 0-7s-1-4-1-6h136v-25h-144c-1-3-3-6-5-9s-4-5-6-9c-13-18-31-32-53-42s-43-15-64-15c-18 0-34 6-49 16s-22 25-22 43v8c0 5 1 7 1 8h-209c-1-3-3-6-5-9s-4-5-6-9c-13-18-31-32-53-42s-43-15-64-15c-19 0-35 6-50 16-14 11-21 25-21 43v7c0 5 0 8 1 9h-1v25h11c2 3 3 5 5 8l5 7c7 8 15 15 24 23s20 15 31 22c11 6 22 9 33 12s20 3 29 3c20 0 38-6 53-17v117h-191v25h191v175h-191v25h191v175h-191v25h750v-25h-135v-175h135v-25h-135v-175h135z m-152 175h-390v-175h390v175z m-391-375l211 0c2 3 3 5 5 8s4 4 6 7c13 17 31 32 54 45 12 6 23 9 33 12s20 3 29 3c20 0 38-6 53-17v117h-390v-162c0-2 0-5 0-7s-1-4-1-6z m1 400h390v108h-390v-108z m542-600v-25h-750v25h750z" horiz-adv-x="734.4" />
<glyph glyph-name="2-quaver-A" unicode="&#xe87e;" d="m742 450l0-25h-135v-62c0-16-4-30-12-44s-18-25-31-35-26-18-42-24-31-9-46-10h266v-25h-750v25h62c-13 1-27 6-41 16-14 11-21 25-21 43 0 20 7 38 21 56 7 8 15 15 24 23s20 15 31 22c19 8 36 13 52 15h-128v25h191v175h-191v25h191v175h-191v25h191v200h424v-200h135v-25h-135v-175h135v-25h-135v-175h135z m-152 175h-390v-175h390v175z m0 200h-390v-175h390v175z m-521-575l395 0c-17 2-32 8-45 18s-20 24-20 41c0 21 8 40 22 56 13 17 31 32 54 45 20 8 38 13 52 15h-327v-62c0-16-4-30-12-44s-18-25-31-35-27-18-42-24-31-9-46-10z m131 600h390v108h-390v-108z m542-800v-25h-750v25h750z m-559 375h-45c14-2 29-7 45-17v17z m407 0h-45c14-2 29-7 45-17v17z" horiz-adv-x="734.4" />
<glyph glyph-name="2-quaver-B" unicode="&#xe87f;" d="m-8 250l135 0v162c0 2 0 5 1 7s0 4 0 6h-136v25h144c2 3 3 6 5 9s4 6 6 9c13 18 31 32 53 42s44 15 64 15c18 0 34-5 49-16s22-25 22-43c0-10 0-15-1-16h209c2 3 3 6 5 9s4 6 6 9c14 18 31 32 53 42s44 15 64 15c19 0 36-5 50-16 14-11 21-25 21-43 0-10 0-15-1-16h1v-25h-11c-1-2-3-5-4-7s-4-5-6-8c-6-7-14-14-24-22s-20-15-31-23c-11-5-22-9-32-11s-21-4-30-4c-20 0-37 6-53 17v-117h191v-25h-191v-175h191v-25h-191v-197h-424v197h-135v25h135v175h-135v25z m152-25v-175h390v175h-390z m180 200c-1-2-3-5-4-7s-4-5-7-8c-13-17-31-32-54-45-12-5-23-9-33-11s-19-4-29-4c-20 0-38 6-53 17v-117h390v162c0 2 0 5 1 7s0 4 0 6h-211z m210-400h-390v-105h390v105z m-542 625h750v-25h-750v25z m0 200h750v-25h-750v25z" horiz-adv-x="734.4" />
<glyph glyph-name="2-quaver-C" unicode="&#xe880;" d="m-8 250l135 0v175h-135v25h135v62c0 16 4 31 12 44s19 25 31 35 27 18 42 24 31 9 46 10h-266v25h750v-25h-61c14-2 27-7 40-16 14-11 21-25 21-43 0-19-7-38-21-56-6-7-14-14-24-22s-20-16-31-23c-9-5-18-9-26-11s-17-3-25-4h127v-25h-191v-175h191v-25h-191v-175h191v-25h-191v-197h-424v197h-135v25h135v175h-135v25z m152-25v-175h390v175h-390z m0 200v-175h390v175h-390z m126 200c18-1 33-7 46-17s19-24 19-42c0-20-7-39-22-56-13-17-31-32-54-45-9-5-18-9-26-11s-17-3-25-4h326v62c0 16 4 31 12 44s19 25 31 35 27 18 42 24 31 9 46 10h-395z m264-600h-390v-105h390v105z m-542 825h750v-25h-750v25z m152-400l41 0c-15 1-29 7-41 17v-17z m407 0l41 0c-15 1-29 7-41 17v-17z" horiz-adv-x="734.4" />
<glyph glyph-name="2-quaver-D" unicode="&#xe881;" d="m-8 250l135 0v175h-135v25h135v162c0 2 0 4 1 7s0 4 0 6h-136v25h144c2 4 3 7 5 9s4 6 6 9c13 18 31 32 53 42s44 15 64 15c18 0 34-5 49-16s22-25 22-43c0-10 0-15-1-16h209c2 4 3 7 5 9s4 6 6 9c14 18 31 32 53 42s44 15 64 15c19 0 36-5 50-16 14-11 21-25 21-43 0-10 0-15-1-16h1v-25h-11c-1-2-3-5-4-7l-6-8c-6-7-14-15-24-22s-20-15-31-23c-11-5-22-9-32-11s-21-4-30-4c-20 0-37 6-53 17v-117h191v-25h-191v-175h191v-25h-191v-175h191v-25h-750v25h135v175h-135v25z m152 175v-175h390v175h-390z m180 200c-1-2-3-5-4-7s-4-5-7-8c-13-17-31-32-54-45-12-5-23-9-33-11s-19-4-29-4c-20 0-38 6-53 17v-117h390v162c0 2 0 4 1 7s0 4 0 6h-211z m210-400h-390v-108h390v108z m-542 625h750v-25h-750v25z" horiz-adv-x="734.4" />
<glyph glyph-name="2-quaver-E" unicode="&#xe882;" d="m-8 250l135 0v175h-135v25h135v175h-135v25h135v62c0 16 4 31 12 44s19 25 31 35 27 18 42 24 31 9 46 10h-266v25h750v-25h-61c14-2 27-7 40-16 14-11 21-25 21-43 0-19-7-38-21-56-6-7-14-15-24-22s-20-15-31-23c-9-5-18-9-26-11s-17-3-25-4h127v-25h-191v-175h191v-25h-191v-175h191v-25h-191v-175h191v-25h-750v25h135v175h-135v25z m152 175v-175h390v175h-390z m0 200v-175h390v175h-390z m126 200c18-1 33-7 46-17s19-24 19-42c0-20-7-39-22-56-13-17-31-32-54-45-9-5-18-9-26-11s-17-3-25-4h326v62c0 16 4 31 12 44s19 25 31 35 27 18 42 24 31 9 46 10h-395z m264-600h-390v-108h390v108z m-390 425l41 0c-15 2-29 7-41 17v-17z m407 0l41 0c-15 2-29 7-41 17v-17z" horiz-adv-x="734.4" />
<glyph glyph-name="2-quaver-F" unicode="&#xe883;" d="m-8 450l135 0v175h-135v25h135v162c0 2 0 5 1 7s0 4 0 6h-136v25h144c2 4 3 7 5 9s4 6 6 9c13 18 31 32 53 42s44 15 64 15c18 0 34-5 49-16s22-25 22-43c0-10 0-15-1-16h209c2 4 3 7 5 9s4 6 6 9c14 18 31 32 53 42s44 15 64 15c19 0 36-5 50-16 14-11 21-26 21-43 0-10 0-15-1-16h1v-25h-11c-1-2-3-5-4-7l-6-8c-6-7-14-15-24-22s-20-15-31-23c-11-5-22-9-32-11s-21-4-30-4c-20 0-37 6-53 17v-117h191v-25h-191v-175h191v-25h-191v-175h191v-25h-750v25h135v175h-135v25z m152 175v-175h390v175h-390z m180 200c-1-2-3-5-4-7s-4-5-7-8c-13-17-31-32-54-45-12-5-23-9-33-11s-19-4-29-4c-20 0-38 6-53 17v-117h390v162c0 2 0 5 1 7s0 4 0 6h-211z m210-400h-390v-108h390v108z m-542-375h750v-25h-750v25z" horiz-adv-x="734.4" />
<glyph glyph-name="2-quaver-G-high" unicode="&#xe884;" d="m-8 450l135 0v175h-135v25h135v175h-135v25h135v62c0 20 7 39 20 56 13 18 31 32 53 42s44 15 64 15c18 0 34-5 49-16s22-25 22-43c0-21-7-39-22-56-13-17-31-32-54-45-9-5-18-9-26-11s-17-3-25-4h326v62c0 20 7 39 20 56 14 18 31 32 53 42s44 15 64 15c19 0 36-5 50-16 14-11 21-25 21-43 0-19-7-38-21-56-6-7-14-14-24-22s-20-15-31-23c-9-5-18-9-26-11s-17-3-25-4h127v-25h-191v-175h191v-25h-191v-175h191v-25h-191v-175h191v-25h-750v25h135v175h-135v25z m152 175v-175h390v175h-390z m0 200v-175h390v175h-390z m390-400h-390v-108h390v108z m-542-375h750v-25h-750v25z m559 800l41 0c-15 1-29 7-41 17v-17z m-407 0l41 0c-15 1-29 7-41 17v-17z" horiz-adv-x="734.4" />
<glyph glyph-name="2-quaver-A-high" unicode="&#xe885;" d="m127 650l0 175h-135v25h135v162c0 2 0 4 1 7s0 4 0 6h-75v25h83c2 4 3 7 5 9 2 3 4 6 6 9 13 18 31 32 53 42 22 10 44 15 64 15 18 0 34-5 49-16s22-25 22-43c0-10 0-15-1-16h75v-25h-85c-1-2-3-5-4-7s-4-5-7-8c-13-17-31-32-54-45-12-5-23-9-33-11s-19-4-29-4c-20 0-38 6-53 17v-117h390v162c0 2 0 4 1 7s0 4 0 6h-75v25h83c2 4 3 7 5 9 2 3 4 6 6 9 14 18 31 32 53 42 22 10 44 15 64 15 19 0 36-5 50-16 14-11 21-25 21-43 0-10 0-15-1-16h75v-25h-85c-1-2-3-5-4-7s-4-5-6-8c-6-7-14-14-24-22s-20-16-31-23c-11-5-22-9-32-11s-21-4-30-4c-20 0-37 6-53 17v-117h191v-25h-191v-175h191v-25h-191v-175h191v-25h-750v25h135v175h-135v25h135z m17 0h390v175h-390v-175z m0-25v-108h390v108h-390z m598-375v-25h-750v25h750z m0-200v-25h-750v25h750z" horiz-adv-x="734.4" />
<glyph glyph-name="2-quaver-B-up" unicode="&#xe886;" d="m742 650l0-25h-135v-162c0-2 0-5 0-7s-1-4-1-6h136v-25h-144c-1-3-3-6-5-9s-4-6-6-9c-13-18-31-32-53-42s-43-15-64-15c-18 0-34 5-49 16s-22 25-22 43v8c0 5 1 8 1 8h-209c-1-3-3-6-5-9s-4-6-6-9c-13-18-31-32-53-42s-43-15-64-15c-19 0-35 5-50 16-14 11-21 25-21 43v7c0 6 0 9 1 9h-1v25h11c2 3 3 5 5 8s3 5 5 7c7 7 15 15 24 23s20 15 31 22c11 5 22 9 33 12s20 3 29 3c20 0 38-5 53-17v117h-191v25h191v175h-191v25h191v200h424v-200h135v-25h-135v-175h135z m-152 175h-390v-175h390v175z m-391-375l211 0c2 3 3 5 5 8s4 5 6 7c13 17 31 32 54 45 12 5 23 9 33 12s20 3 29 3c20 0 38-5 53-17v117h-390v-162c0-2 0-5 0-7s-1-4-1-6z m1 400h390v108h-390v-108z m542-600v-25h-750v25h750z m0-200v-25h-750v25h750z" horiz-adv-x="734.4" />
<glyph glyph-name="sharp-A-low" unicode="&#xe887;" d="m34-403v79l-42-7v55l42 7v85h24v-80l54 9v109h24v-105l38 7v-54l-38-7v-80l38 7v-57l-38-6v-84h-24v80l-54-10v-106h-24v101l-42-7v57z m208 653v-25h-250v25h250z m0 600v-25h-250v25h250z m0-200v-25h-250v25h250z m0-200v-25h-250v25h250z m0-400v-25h-250v25h250z m-130-439v79l-54-9v-79z" horiz-adv-x="234.4" />
<glyph glyph-name="sharp-B-low" unicode="&#xe888;" d="m34-305v79l-42-7v55l42 7v85h24v-80l54 9v109h24v-105l38 7v-54l-38-7v-80l38 7v-57l-38-6v-84h-24v80l-54-10v-106h-24v101l-42-7v57z m208 555v-25h-250v25h250z m0 600v-25h-250v25h250z m0-200v-25h-250v25h250z m0-200v-25h-250v25h250z m0-400v-25h-250v25h250z m-130-341v79l-54-9v-79z" horiz-adv-x="234.4" />
<glyph glyph-name="sharp-C-low" unicode="&#xe889;" d="m34-208v79l-42-7v55l42 7v85h24v-80l54 9v85h-120v25h250v-25h-106v-81l38 7v-54l-38-7v-80l38 7v-57l-38-6v-84h-24v80l-54-10v-106h-24v101l-42-7v57z m208 458v-25h-250v25h250z m0 200v-25h-250v25h250z m0 400v-25h-250v25h250z m0-200v-25h-250v25h250z m-130-844v79l-54-9v-79z" horiz-adv-x="234.4" />
<glyph glyph-name="sharp-D-low" unicode="&#xe88a;" d="m34-110v79l-42-7v55l42 7v1h-42v25h42v59h24v-59h54v97h24v-97h106v-25h-68v-30l-38-7v-80l38 7v-57l-38-6v-84h-24v80l-54-10v-106h-24v101l-42-7v57z m208 360v-25h-250v25h250z m0 200v-25h-250v25h250z m0 400v-25h-250v25h250z m0-200v-25h-250v25h250z m-130-746v79l-54-9v-79z" horiz-adv-x="234.4" />
<glyph glyph-name="sharp-E-low" unicode="&#xe88b;" d="m242 250v-25h-106v-81l38 7v-54l-38-7v-40h106v-25h-106v-12l38 7v-57l-38-6v-84h-24v80l-54-10v-106h-24v101l-42-7v57l42 7v30h-42v25h42v21l-42-7v55l42 7v85h24v-80l54 9v85h-120v25h250z m0 200v-25h-250v25h250z m0 200v-25h-250v25h250z m0 200v-25h-250v25h250z m-184-800h54v35l-54-9v-26z m54-41v16h-54v-25z" horiz-adv-x="234.4" />
<glyph glyph-name="sharp-F-low" unicode="&#xe88c;" d="m242 250v-25h-68v-30l-38-7v-80l38 7v-57l-38-6v-2h106v-25h-106v-54h-24v54h-54v-90h-24v90h-42v58l42 7v79l-42-7v55l42 7v1h-42v25h42v59h24v-59h54v97h24v-97h106z m0 200v-25h-250v25h250z m0 200v-25h-250v25h250z m0 200v-25h-250v25h250z m-130-746v79l-54-9v-79z" horiz-adv-x="234.4" />
<glyph glyph-name="sharp-G" unicode="&#xe88d;" d="m242 250v-25h-106v-15l38 7v-57l-38-6v-84h-24v80l-54-10v-90h184v-25h-250v25h42v85l-42-7v57l42 7v33h-42v25h42v21l-42-7v55l42 7v85h24v-80l54 9v85h-120v25h250v-25h-106v-81l38 7v-54l-38-7v-40h106z m0 400v-25h-250v25h250z m0 200v-25h-250v25h250z m-184-600h54v35l-54-9v-26z m54-44v19h-54v-28z" horiz-adv-x="234.4" />
<glyph glyph-name="sharp-A" unicode="&#xe88e;" d="m242 450v-25h-68v-30l-38-7v-80l38 7v-57l-38-6v-2h106v-25h-106v-57h-24v57h-54v-93h-24v93h-42v58l42 7v79l-42-7v55l42 7v1h-42v25h42v59h24v-59h54v97h24v-97h106z m0 200v-25h-250v25h250z m0 200v-25h-250v25h250z m0-800v-25h-250v25h250z m-130 254v79l-54-9v-79z" horiz-adv-x="234.4" />
<glyph glyph-name="sharp-B" unicode="&#xe88f;" d="m242 450v-25h-106v-15l38 7v-57l-38-6v-84h-24v80l-54-10v-90h184v-25h-250v25h42v85l-42-7v57l42 7v33h-42v25h42v21l-42-7v55l42 7v85h24v-80l54 9v85h-120v25h250v-25h-106v-81l38 7v-54l-38-7v-40h106z m0 400v-25h-250v25h250z m0-800v-25h-250v25h250z m-184 400h54v35l-54-9v-26z m54-44v19h-54v-28z" horiz-adv-x="234.4" />
<glyph glyph-name="sharp-C" unicode="&#xe890;" d="m242 650v-25h-68v-30l-38-7v-80l38 7v-57l-38-6v-2h106v-25h-106v-57h-24v57h-54v-93h-24v93h-42v58l42 7v79l-42-7v55l42 7v1h-42v25h42v59h24v-59h54v97h24v-97h106z m0-400v-25h-250v25h250z m0 600v-25h-250v25h250z m0-800v-25h-250v25h250z m-130 454v79l-54-9v-79z" horiz-adv-x="234.4" />
<glyph glyph-name="sharp-D" unicode="&#xe891;" d="m242 650v-25h-106v-15l38 7v-57l-38-6v-84h-24v80l-54-10v-90h184v-25h-250v25h42v85l-42-7v57l42 7v33h-42v25h42v21l-42-7v55l42 7v85h24v-80l54 9v85h-120v25h250v-25h-106v-81l38 7v-54l-38-7v-40h106z m0-400v-25h-250v25h250z m0-200v-25h-250v25h250z m-184 600h54v35l-54-9v-26z m54-44v19h-54v-28z" horiz-adv-x="234.4" />
<glyph glyph-name="sharp-E" unicode="&#xe892;" d="m242 850v-25h-68v-30l-38-7v-80l38 7v-57l-38-6v-2h106v-25h-106v-57h-24v57h-54v-93h-24v93h-42v58l42 7v79l-42-7v55l42 7v1h-42v25h42v59h24v-59h54v97h24v-97h106z m0-600v-25h-250v25h250z m0 200v-25h-250v25h250z m0-400v-25h-250v25h250z m-130 654v79l-54-9v-79z" horiz-adv-x="234.4" />
<glyph glyph-name="sharp-F" unicode="&#xe893;" d="m242 850v-25h-106v-15l38 7v-57l-38-6v-84h-24v80l-54-10v-90h184v-25h-250v25h42v85l-42-7v57l42 7v33h-42v25h42v21l-42-7v55l42 7v85h24v-80l54 9v109h24v-105l38 7v-54l-38-7v-40h106z m0-600v-25h-250v25h250z m0 200v-25h-250v25h250z m0-400v-25h-250v25h250z m-184 800h54v35l-54-9v-26z m54-44v19h-54v-28z" horiz-adv-x="234.4" />
<glyph glyph-name="sharp-G-high" unicode="&#xe894;" d="m34 890v79l-42-7v55l42 7v85h24v-80l54 9v109h24v-105l38 7v-54l-38-7v-80l38 7v-57l-38-6v-2h106v-25h-106v-57h-24v57h-54v-93h-24v93h-42v58z m208-240v-25h-250v25h250z m0-200v-25h-250v25h250z m0-200v-25h-250v25h250z m0-200v-25h-250v25h250z m-130 854v79l-54-9v-79z" horiz-adv-x="234.4" />
<glyph glyph-name="sharp-A-high" unicode="&#xe895;" d="m34 992v79l-42-7v55l42 7v85h24v-80l54 9v109h24v-105l38 7v-54l-38-7v-80l38 7v-57l-38-6v-84h-24v80l-54-10v-90h184v-25h-250v25h42v85l-42-7v57z m208-342v-25h-250v25h250z m0-200v-25h-250v25h250z m0-200v-25h-250v25h250z m0-200v-25h-250v25h250z m-130 956v79l-54-9v-79z" horiz-adv-x="234.4" />
<glyph glyph-name="ligature-long-up" unicode="&#xe896;" d="m658 1150c76 0 148-9 217-29s139-44 211-75c-1 0 3-3 10-9l29-24 38-33 38-34c11-11 21-21 29-30s12-15 12-19c0-3-1-4-3-4-17 0-34 5-52 14s-35 21-51 33-30 24-43 36-23 21-31 26c-71 28-143 48-217 58s-147 15-220 15c-76 0-153-4-230-13s-151-30-224-62c-2-1-9-7-22-18s-28-23-46-37-35-25-54-36-36-16-51-16c-1 0-2 1-2 2 0 3 4 9 11 17s16 18 26 29 23 24 36 36l37 34c11 10 21 19 30 25s13 10 16 10c74 31 147 56 218 75 71 20 145 29 221 29h67z m-641-1125h-25v25h25v-25z m0 400h-25v25h25v-25z m0 200h-25v25h25v-25z m0 200h-25v25h25v-25z m0-600h-25v25h25v-25z" horiz-adv-x="9.3" />
<glyph glyph-name="flat-A-low" unicode="&#xe897;" d="m-8-487v420h22v-244c21 15 44 22 68 22 17 0 32-4 45-14s20-22 20-38c0-11-5-22-15-32-4-6-10-12-17-18s-16-13-26-20l-52-38c-9-6-18-12-25-19s-14-13-20-19z m22 146l0-104 30 30 15 14c4 4 8 8 10 12 14 15 20 31 20 46 0 6-1 10-3 14s-4 7-7 10c-2 2-5 4-9 6s-7 2-13 2c-18 0-33-10-43-30z m228 591v-25h-250v25h250z m0 400v-25h-250v25h250z m0 200v-25h-250v25h250z m0-400v-25h-250v25h250z m0-400v-25h-250v25h250z" horiz-adv-x="234.4" />
<glyph glyph-name="flat-B-low" unicode="&#xe898;" d="m-8-389v439h250v-25h-227v-238c21 15 44 22 68 22 17 0 32-5 45-14s20-22 20-38c0-11-5-22-15-32-4-6-10-12-17-18s-16-12-26-20l-52-38c-9-6-17-12-25-19s-14-13-20-19h-1z m23 146l0-104 30 30c6 5 10 10 15 14s8 8 10 12c14 16 20 31 20 46 0 5-1 10-3 14s-4 7-7 10c-2 2-5 4-9 6s-7 2-13 2c-18 0-33-10-43-30z m227 493v-25h-250v25h250z m0 600v-25h-250v25h250z m0-200v-25h-250v25h250z m0-200v-25h-250v25h250z" horiz-adv-x="234.4" />
<glyph glyph-name="flat-C-low" unicode="&#xe899;" d="m-8-289v417h23v-78h227v-25h-227v-138c21 15 44 22 68 22 17 0 32-5 45-14s20-22 20-38c0-11-5-22-15-32-4-6-10-12-17-18l-26-20-52-38c-9-6-17-12-25-19s-14-13-20-19h-1z m23 146l0-104 30 30c6 6 10 10 15 14s8 8 10 12c14 16 20 31 20 46 0 6-1 10-3 14s-4 7-7 10c-2 2-5 4-9 6s-7 2-13 2c-18 0-33-10-43-30z m227 393v-25h-250v25h250z m0 600v-25h-250v25h250z m0-200v-25h-250v25h250z m0-200v-25h-250v25h250z" horiz-adv-x="234.4" />
<glyph glyph-name="flat-D-low" unicode="&#xe89a;" d="m242 250v-25h-227v-175h227v-25h-227v-38c21 15 44 22 68 22 17 0 32-4 45-14s20-22 20-38c0-11-5-22-15-32-4-6-10-12-17-18l-26-20-52-38c-9-6-17-12-25-19s-15-13-21-19v439h250z m-227-293l0-104 30 30 15 14c4 4 8 8 10 12 14 15 20 31 20 46 0 5-1 10-3 14s-4 7-7 10c-2 2-5 4-9 6s-7 2-13 2c-18 0-33-10-43-30z m227 893v-25h-250v25h250z m0-400v-25h-250v25h250z m0 200v-25h-250v25h250z" horiz-adv-x="234.4" />
<glyph glyph-name="flat-E-low" unicode="&#xe89b;" d="m242 250v-25h-227v-141c21 15 44 22 68 22 17 0 32-4 45-14s20-22 20-38v-4h94v-25h-103c-11-9-19-16-25-20s-14-10-24-18l-52-38c-9-6-17-12-25-19s-15-13-21-19v417h23v-78h227z m0 200v-25h-250v25h250z m0 200v-25h-250v25h250z m0 200v-25h-250v25h250z m-227-825v-72l30 30 15 14c4 4 8 8 10 12 3 3 5 6 8 8s4 5 6 8h-69z m0 29l0-4h75v2c0 5-1 10-3 14s-4 7-7 10c-2 2-5 4-9 6s-7 2-13 2c-18 0-33-10-43-30z" horiz-adv-x="234.4" />
<glyph glyph-name="flat-F-low" unicode="&#xe89c;" d="m242 250l0-25h-227v-41c21 15 44 22 68 22 17 0 32-5 45-14s20-22 20-38c0-11-5-22-15-32-4-6-10-12-17-18s-16-12-26-20l-47-34h199v-25h-233c-3-3-6-5-9-7s-5-4-8-7v439h250v-25h-227v-175h227z m-227-96l0-104 30 30c6 6 10 10 15 14s8 8 10 12c14 16 20 31 20 46 0 6-1 10-3 14s-4 7-7 10c-2 2-5 4-9 6s-7 2-13 2c-18 0-33-10-43-30z m227 496v-25h-250v25h250z m0 200v-25h-250v25h250z" horiz-adv-x="234.4" />
<glyph glyph-name="flat-G" unicode="&#xe89d;" d="m242 450v-25h-227v-141c21 15 44 22 68 22 17 0 32-5 45-14s20-22 20-38v-4h94v-25h-106l-3-3c-4-6-10-12-17-18l-26-20-52-38c-9-6-17-12-25-19s-15-13-21-19v420h23v-78h227z m0 400v-25h-250v25h250z m0-200v-25h-250v25h250z m0-600v-25h-250v25h250z m-227 175v-75l30 30c6 6 10 10 15 14s8 8 10 12c3 3 5 6 7 9l6 10h-68z m0 29l0-4h75v2c0 6-1 10-3 14s-4 7-7 10c-2 2-5 4-9 6s-7 2-13 2c-18 0-33-10-43-30z" horiz-adv-x="234.4" />
<glyph glyph-name="flat-A" unicode="&#xe89e;" d="m242 450l0-25h-227v-41c21 15 44 22 68 22 17 0 32-4 45-14s20-22 20-38c0-11-5-22-15-32-4-6-10-12-17-18l-26-20-47-34h199v-25h-233c-3-3-6-5-9-7s-5-3-8-7v439h250v-25h-227v-175h227z m-227-96l0-104 30 30 15 14c4 4 8 8 10 12 14 15 20 31 20 46 0 6-1 10-3 14s-4 7-7 10c-2 2-5 4-9 6s-7 2-13 2c-18 0-33-10-43-30z m227 496v-25h-250v25h250z m0-800v-25h-250v25h250z" horiz-adv-x="234.4" />
<glyph glyph-name="flat-B" unicode="&#xe89f;" d="m242 650v-25h-227v-141c21 15 44 22 68 22 17 0 32-4 45-14s20-22 20-38v-4h94v-25h-106l-3-3c-4-6-10-12-17-18l-26-20-52-38c-9-6-17-12-25-19s-15-13-21-19v420h23v-78h227z m0-400v-25h-250v25h250z m0 600v-25h-250v25h250z m0-800v-25h-250v25h250z m-227 375v-75l30 30 15 14c4 4 8 8 10 12 3 3 5 6 7 9l6 10h-68z m0 29l0-4h75v2c0 6-1 10-3 14s-4 7-7 10c-2 2-5 4-9 6s-7 2-13 2c-18 0-33-10-43-30z" horiz-adv-x="234.4" />
<glyph glyph-name="flat-D-1" unicode="&#xe8a0;" d="m242 650l0-25h-227v-41c21 15 44 22 68 22 17 0 32-4 45-14s20-22 20-38c0-11-5-22-15-32-4-6-10-12-17-18s-16-13-26-20l-47-34h199v-25h-233c-3-3-6-5-9-7s-5-3-8-7v439h250v-25h-227v-175h227z m-227-96l0-104 30 30 15 14c4 4 8 8 10 12 14 16 20 31 20 46 0 5-1 10-3 14s-4 7-7 10c-2 2-5 4-9 6s-7 2-13 2c-18 0-33-10-43-30z m227-304v-25h-250v25h250z m0-200v-25h-250v25h250z" horiz-adv-x="234.4" />
<glyph glyph-name="flat-D" unicode="&#xe8a1;" d="m242 850v-25h-227v-141c21 15 44 22 68 22 17 0 32-5 45-14s20-22 20-38v-4h94v-25h-106l-3-3c-4-6-10-12-17-18s-16-12-26-20l-52-38c-9-6-17-12-25-19s-15-13-21-19v420h23v-78h227z m0-600v-25h-250v25h250z m0 200v-25h-250v25h250z m0-400v-25h-250v25h250z m-227 575v-75l30 30c6 6 10 10 15 14s8 8 10 12c3 3 5 6 7 9l6 10h-68z m0 29l0-4h75v2c0 6-1 10-3 14s-4 7-7 10c-2 2-5 4-9 6s-7 2-13 2c-18 0-33-10-43-30z" horiz-adv-x="234.4" />
<glyph glyph-name="flat-E" unicode="&#xe8a2;" d="m242 850v-25h-227v-41c21 15 44 22 68 22 17 0 32-5 45-14s20-22 20-38c0-11-5-22-15-32-4-6-10-12-17-18l-26-20-47-34h199v-25h-232l-18-17v420h23v-178h227z m-227-96l0-104 30 30c6 6 10 10 15 14s8 8 10 12c14 16 20 31 20 46 0 6-1 10-3 14s-4 7-7 10c-2 2-5 4-9 6s-7 2-13 2c-18 0-33-10-43-30z m227-304v-25h-250v25h250z m0-200v-25h-250v25h250z m0-200v-25h-250v25h250z" horiz-adv-x="234.4" />
<glyph glyph-name="flat-F" unicode="&#xe8a3;" d="m-8 707v421h23v-244c21 15 44 22 68 22 17 0 32-4 45-14s20-22 20-38v-4h94v-25h-106l-3-3c-4-6-10-12-17-18l-26-20-52-38c-9-6-17-12-25-19s-14-13-20-19z m250-57v-25h-250v25h250z m0-200v-25h-250v25h250z m0-200v-25h-250v25h250z m0-200v-25h-250v25h250z m-227 775v-75l30 30 15 14c4 4 8 8 10 12 3 3 5 6 7 9l6 10h-68z m0 29l0-4h75v2c0 6-1 10-3 14s-4 7-7 10c-2 2-5 4-9 6s-7 2-13 2c-18 0-33-10-43-30z" horiz-adv-x="234.4" />
<glyph glyph-name="flat-G-high" unicode="&#xe8a4;" d="m-8 808v420h23v-244c21 15 44 22 68 22 17 0 32-4 45-14s20-22 20-38c0-11-5-22-15-32-4-6-10-12-17-18l-26-20-47-34h199v-25h-232z m23 146l0-104 30 30 15 14c4 4 8 8 10 12 14 16 20 31 20 46 0 6-1 10-3 14s-4 7-7 10c-2 2-5 4-9 6s-7 2-13 2c-18 0-33-10-43-30z m227-504v-25h-250v25h250z m0 200v-25h-250v25h250z m0-400v-25h-250v25h250z m0-200v-25h-250v25h250z" horiz-adv-x="234.4" />
<glyph glyph-name="flat-A-high" unicode="&#xe8a5;" d="m-8 908v420h23v-244c21 15 44 22 68 22 17 0 32-4 45-14s20-22 20-38c0-11-5-22-15-32-4-6-10-12-17-18s-16-13-26-20l-52-38c-9-6-17-12-25-19s-14-13-20-19h-1z m23 146l0-104 30 30 15 14c4 4 8 8 10 12 14 16 20 31 20 46 0 5-1 10-3 14-2 3-4 7-7 10-2 2-5 4-9 6s-7 2-13 2c-18 0-33-10-43-30z m227-804v-25h-250v25h250z m0 400v-25h-250v25h250z m0 200v-25h-250v25h250z m0-400v-25h-250v25h250z m0-400v-25h-250v25h250z" horiz-adv-x="234.4" />
<glyph glyph-name="ligature-long-down" unicode="&#xe8a6;" d="m591-275c-76 0-151 9-223 29s-145 43-220 74c-2 0-7 3-16 10s-19 15-30 26-24 21-37 34l-35 35c-11 11-20 21-27 29s-11 14-11 17c0 1 2 2 5 2s5 1 6 1c15 0 31-5 49-16s35-24 52-37 30-26 42-37 19-18 21-19c36-16 73-29 110-38s75-17 113-22 76-9 115-10 76-3 114-3c73 0 146 6 221 16s147 30 217 58c8 6 19 14 31 26s27 24 43 36 32 23 50 32 35 14 53 14c2 0 3 0 5-1s3-1 3-3c0-4-4-10-12-19s-18-18-30-29l-40-34-39-32-29-25c-7-6-11-9-10-9-36-15-71-29-105-42-34-12-69-23-104-33s-69-17-105-22-72-8-110-8h-67z m-573 500h-26v25h26v-25z m0 600h-26v25h26v-25z m0-200h-26v25h26v-25z m0-200h-26v25h26v-25z m0-400h-26v25h26v-25z" horiz-adv-x="9.3" />
<glyph glyph-name="natural-A-low" unicode="&#xe8a7;" d="m-8-461v299h22v-118l100 24v-293h-22v111z m250 911v-25h-250v25h250z m0 400v-25h-250v25h250z m0-200v-25h-250v25h250z m0-400v-25h-250v25h250z m0-200v-25h-250v25h250z m-228-383v-69l78 18v70z" horiz-adv-x="234.4" />
<glyph glyph-name="natural-B-low" unicode="&#xe8a8;" d="m-8-361v299h22v-118l100 24v-293h-22v111z m250 811v-25h-250v25h250z m0 400v-25h-250v25h250z m0-200v-25h-250v25h250z m0-400v-25h-250v25h250z m0-200v-25h-250v25h250z m-228-283v-69l78 18v70z" horiz-adv-x="234.4" />
<glyph glyph-name="natural-C-low" unicode="&#xe8a9;" d="m-8-266v316h250v-25h-228v-110l100 24v-293h-22v111z m250 516v-25h-250v25h250z m0 200v-25h-250v25h250z m0 400v-25h-250v25h250z m0-200v-25h-250v25h250z m-228-788v-69l78 18v70z" horiz-adv-x="234.4" />
</font>
</defs>
</svg>
